<svg width="39" height="39" viewBox="0 0 39 39" fill="none" xmlns="http://www.w3.org/2000/svg">
<path d="M19.1397 37.2897C29.1183 37.2897 37.2075 29.2004 37.2075 19.2218C37.2075 9.2432 29.1183 1.15393 19.1397 1.15393C9.16104 1.15393 1.07178 9.2432 1.07178 19.2218C1.07178 29.2004 9.16104 37.2897 19.1397 37.2897Z" stroke="white" stroke-width="2" stroke-miterlimit="10"/>
<path d="M27.7011 15.2044H27.4924V15.1885C26.457 13.2289 24.7208 11.699 22.6064 10.883V10.5452C22.6064 10.4238 22.5565 10.3073 22.4676 10.2214C22.3788 10.1355 22.2582 10.0873 22.1326 10.0873H21.7061C21.5938 10.0874 21.4852 10.1263 21.3998 10.1968C21.3144 10.2673 21.2578 10.3649 21.2401 10.4721C19.8593 10.1676 18.4253 10.1676 17.0445 10.4721C17.0259 10.3653 16.9688 10.2684 16.8832 10.1985C16.7977 10.1286 16.6892 10.0903 16.5772 10.0905H16.1474C16.0852 10.0905 16.0236 10.1023 15.9662 10.1253C15.9087 10.1484 15.8566 10.1821 15.8126 10.2246C15.7686 10.2672 15.7338 10.3177 15.7101 10.3732C15.6863 10.4288 15.6742 10.4883 15.6742 10.5484V10.8862C13.5605 11.7016 11.8245 13.2302 10.7882 15.1885V15.2044H10.5783C10.3339 15.2044 10.0995 15.2982 9.92673 15.4652C9.75394 15.6322 9.65686 15.8587 9.65686 16.0949V22.519C9.65686 22.7552 9.75394 22.9817 9.92673 23.1487C10.0995 23.3157 10.3339 23.4096 10.5783 23.4096H10.7882C11.5728 24.8982 12.7682 26.1482 14.2421 27.0211C15.716 27.8941 17.411 28.3562 19.1397 28.3562C20.8684 28.3562 22.5633 27.8941 24.0372 27.0211C25.5111 26.1482 26.7065 24.8982 27.4911 23.4096H27.7011C27.9455 23.4096 28.1798 23.3157 28.3526 23.1487C28.5254 22.9817 28.6225 22.7552 28.6225 22.519V16.0949C28.6225 15.8587 28.5254 15.6322 28.3526 15.4652C28.1798 15.2982 27.9455 15.2044 27.7011 15.2044ZM25.8352 21.3525C25.0685 23.5876 20.9499 24.0659 19.0762 24.0596C18.647 24.0596 13.3977 23.9883 12.4619 21.4034C11.8169 19.6225 13.3076 16.8772 15.6742 15.3927C16.1054 15.1203 16.5662 14.8946 17.0484 14.7197C18.3966 14.2204 19.89 14.2304 21.2309 14.7477C21.7128 14.9273 22.1735 15.1561 22.6051 15.4302C24.9481 16.9186 26.4335 19.6078 25.8352 21.3525Z" fill="white"/>
<path fill-rule="evenodd" clip-rule="evenodd" d="M16.922 20.2525C17.5555 20.2525 18.0691 19.5599 18.0691 18.7055C18.0691 17.8512 17.5555 17.1586 16.922 17.1586C16.2885 17.1586 15.7749 17.8512 15.7749 18.7055C15.7749 19.5599 16.2885 20.2525 16.922 20.2525ZM20.276 19.3024C21.4239 19.0181 22.0753 19.0257 23.2673 19.3024C23.2175 18.9532 23.0386 18.6333 22.7637 18.4017C22.4887 18.1701 22.1364 18.0425 21.7717 18.0425C21.407 18.0425 21.0546 18.1701 20.7797 18.4017C20.5048 18.6333 20.3259 18.9532 20.276 19.3024Z" fill="#F5F5F5"/>
</svg>
