<svg width="36" height="34" viewBox="0 0 36 34" fill="none" xmlns="http://www.w3.org/2000/svg">
<path d="M33.5383 9.72399H33.161V9.69531C31.2887 6.15194 28.1495 3.38568 24.3263 1.91021V1.29951C24.3263 1.07989 24.236 0.869268 24.0753 0.713973C23.9146 0.558679 23.6967 0.471436 23.4695 0.471436H22.6983C22.4953 0.471723 22.2989 0.541913 22.1445 0.669422C21.9901 0.79693 21.8878 0.973419 21.8558 1.16725C19.3591 0.616727 16.7661 0.616727 14.2693 1.16725C14.2358 0.974182 14.1325 0.79887 13.9778 0.67251C13.823 0.54615 13.627 0.476937 13.4244 0.477186H12.6473C12.5348 0.477186 12.4235 0.498613 12.3196 0.540242C12.2157 0.58187 12.1214 0.642885 12.0418 0.719793C11.9624 0.796702 11.8995 0.887998 11.8565 0.988457C11.8136 1.08892 11.7916 1.19657 11.7917 1.30526V1.91597C7.96973 3.39038 4.83073 6.15436 2.95692 9.69531V9.72399H2.5773C2.13544 9.72399 1.71167 9.89368 1.39923 10.1956C1.08678 10.4976 0.911255 10.9071 0.911255 11.3342V22.9502C0.911255 23.3773 1.08678 23.7868 1.39923 24.0888C1.71167 24.3907 2.13544 24.5604 2.5773 24.5604H2.95692C4.37568 27.2521 6.5371 29.5123 9.20215 31.0908C11.8672 32.6693 14.9321 33.5048 18.0578 33.5048C21.1836 33.5048 24.2484 32.6693 26.9135 31.0908C29.5785 29.5123 31.7399 27.2521 33.1587 24.5604H33.5383C33.9802 24.5604 34.4039 24.3907 34.7164 24.0888C35.0288 23.7868 35.2043 23.3773 35.2043 22.9502V11.3342C35.2043 10.9071 35.0288 10.4976 34.7164 10.1956C34.4039 9.89368 33.9802 9.72399 33.5383 9.72399ZM30.1646 20.8409C28.7782 24.8824 21.331 25.7473 17.943 25.7358C17.1671 25.7358 7.67538 25.607 5.98316 20.9329C4.81694 17.7127 7.51235 12.7488 11.7917 10.0645C12.5712 9.57195 13.4046 9.16393 14.2765 8.84764C16.7142 7.94485 19.4145 7.96292 21.8391 8.89825C22.7104 9.22302 23.5435 9.63671 24.3239 10.1323C28.5604 12.8236 31.2463 17.6862 30.1646 20.8409Z" fill="white"/>
<path fill-rule="evenodd" clip-rule="evenodd" d="M14.0478 18.8522C15.1933 18.8522 16.122 17.5998 16.122 16.055C16.122 14.5101 15.1933 13.2578 14.0478 13.2578C12.9023 13.2578 11.9736 14.5101 11.9736 16.055C11.9736 17.5998 12.9023 18.8522 14.0478 18.8522ZM20.1124 17.1342C22.188 16.6201 23.3658 16.6339 25.5211 17.1342C25.4311 16.5028 25.1076 15.9243 24.6105 15.5056C24.1134 15.0869 23.4763 14.8562 22.8168 14.8562C22.1574 14.8562 21.5203 15.0869 21.0231 15.5056C20.5261 15.9243 20.2026 16.5028 20.1124 17.1342Z" fill="#F5F5F5"/>
</svg>
