<svg width="39" height="39" viewBox="0 0 39 39" fill="none" xmlns="http://www.w3.org/2000/svg">
<path d="M19.2445 37.3867C29.2231 37.3867 37.3124 29.2975 37.3124 19.3189C37.3124 9.34024 29.2231 1.25098 19.2445 1.25098C9.2659 1.25098 1.17664 9.34024 1.17664 19.3189C1.17664 29.2975 9.2659 37.3867 19.2445 37.3867Z" stroke="white" stroke-width="2" stroke-miterlimit="10"/>
<path d="M16.6591 17.7357C16.8893 17.705 17.115 17.6749 17.3407 17.6449C17.4489 17.6305 17.5237 17.5836 17.564 17.4716C17.7313 17.0076 17.9057 16.5463 18.0814 16.0732C17.9739 16.0287 17.9079 16.0014 17.8519 15.9782C17.7062 16.3875 17.5585 16.7802 17.4281 17.1785C17.3681 17.3615 17.264 17.4493 17.0727 17.447C16.7372 17.4429 16.3999 17.4666 16.0666 17.439C15.3372 17.3788 14.7764 17.8053 14.678 18.5228C14.5915 19.1539 15.0589 19.7346 15.745 19.8485C15.7752 19.8535 15.8052 19.8598 15.8563 19.8694C15.7013 20.1273 15.5544 20.3727 15.4066 20.6176C14.2912 22.4655 13.1774 24.3142 12.059 26.1602C11.7682 26.6401 11.3271 26.8617 10.7747 26.7915C10.2136 26.7202 9.84735 26.3853 9.6919 25.8392C9.59895 25.5126 9.63357 25.1892 9.80778 24.8966C10.3748 23.9441 10.9492 22.996 11.5217 22.0468C12.0749 21.1296 12.6293 20.213 13.1828 19.296C13.1962 19.2739 13.2058 19.2495 13.2243 19.2114C13.1358 19.1581 13.0514 19.1072 12.954 19.0486C12.7119 19.4491 12.4754 19.8398 12.2393 20.2307C11.3469 21.7088 10.4573 23.1887 9.56076 24.6644C9.28823 25.1129 8.87523 25.3311 8.35131 25.2957C7.87403 25.2634 7.51475 25.0205 7.2978 24.5936C7.09329 24.1911 7.08967 23.7749 7.32099 23.3842C7.93723 22.3432 8.56534 21.3093 9.18995 20.2733C9.82283 19.2236 10.4571 18.1747 11.091 17.1256C11.1073 17.0986 11.1259 17.0731 11.1539 17.031C11.195 17.0842 11.2291 17.1286 11.2635 17.1727C11.6662 17.6896 12.388 17.7983 12.9228 17.4226C13.4521 17.0508 13.5803 16.3328 13.2431 15.7719C13.0382 15.4312 12.873 15.0666 12.6898 14.7129C12.6419 14.6206 12.6618 14.5458 12.7321 14.4695C13.0416 14.1332 13.3473 13.7932 13.6631 13.4449C13.625 13.4141 13.5722 13.3713 13.5017 13.3142C13.42 13.3871 13.3315 13.4539 13.2576 13.5341C13.005 13.8085 12.7623 14.0921 12.5059 14.3628C12.4023 14.4721 12.3878 14.5829 12.4356 14.7118C12.5114 14.9158 12.5913 15.1182 12.6755 15.3369C12.113 15.6293 11.5475 15.9233 10.9523 16.2327C10.8473 15.9805 10.7378 15.746 10.6512 15.5032C10.4883 15.0459 10.3914 14.5739 10.5025 14.0914C10.5517 13.8777 10.6262 13.6512 10.753 13.477C11.3558 12.6493 12.0436 11.9016 12.9192 11.3495C13.4752 10.9989 14.0769 10.7867 14.7401 10.7739C14.8351 10.7721 14.9304 10.7822 15.0397 10.7875C14.9812 11.9871 15.3936 12.9614 16.43 13.5882C17.4672 14.2156 18.5199 14.1349 19.5895 13.5037C19.7011 13.7671 19.8326 14.0216 19.9184 14.2907C20.1348 14.9687 20.0989 15.6586 19.9638 16.3468C19.8173 17.0936 19.5514 17.8012 19.232 18.4888C19.0046 18.9785 18.5942 19.2644 18.1007 19.4404C17.67 19.594 17.2212 19.6516 16.7654 19.6595C16.7347 19.6601 16.7038 19.6538 16.6591 19.6493V17.7357V17.7357ZM17.2522 15.7331C16.6108 15.3462 15.9881 14.9705 15.3543 14.5882C15.1472 14.9316 14.9481 15.2616 14.7421 15.6032C15.3809 15.9886 16.0065 16.3661 16.6395 16.748C16.8474 16.4036 17.045 16.0763 17.2522 15.7331V15.7331ZM13.5476 14.8821C13.8202 15.0461 14.0816 15.2033 14.3555 15.3681C14.5637 15.0222 14.7618 14.693 14.966 14.3538C14.6891 14.1868 14.4312 14.0313 14.1601 13.8677C13.9545 14.2082 13.755 14.5386 13.5476 14.8821V14.8821Z" fill="white"/>
<path d="M23.7374 20.7119C26.507 20.7117 28.7527 22.9611 28.7474 25.7301C28.7421 28.4964 26.5036 30.7356 23.7407 30.7381C20.9709 30.7407 18.723 28.4955 18.722 25.7257C18.7211 22.9543 20.964 20.7121 23.7374 20.7119V20.7119ZM21.2993 23.1929C21.5679 23.1904 21.787 22.969 21.7857 22.7015C21.7844 22.4302 21.5692 22.2177 21.2953 22.2173C21.0141 22.2168 20.797 22.4352 20.8021 22.7135C20.807 22.981 21.0295 23.1955 21.2993 23.1929V23.1929ZM23.5208 22.5976C23.5181 22.799 23.6808 22.9636 23.8821 22.9633C24.0768 22.963 24.2384 22.8071 24.2443 22.6138C24.2504 22.4143 24.0892 22.2439 23.8903 22.2396C23.6889 22.2352 23.5236 22.3954 23.5208 22.5976V22.5976ZM20.9033 24.276C20.9044 24.0686 20.7454 23.9094 20.5404 23.9123C20.3417 23.9152 20.1894 24.0704 20.1884 24.2711C20.1873 24.4791 20.3451 24.6368 20.5516 24.6342C20.7506 24.6317 20.9023 24.4771 20.9033 24.276ZM23.9663 21.6172C23.9613 21.7921 24.0955 21.9353 24.2683 21.9396C24.442 21.9439 24.5842 21.8063 24.5859 21.6323C24.5875 21.4622 24.4602 21.3267 24.2913 21.3187C24.1163 21.3105 23.9712 21.4438 23.9663 21.6172ZM26.5007 22.2257C26.4977 22.082 26.3738 21.9637 26.2316 21.9689C26.0869 21.9742 25.9754 22.0962 25.9813 22.243C25.9868 22.3817 26.1013 22.4906 26.2413 22.4904C26.3879 22.4901 26.5037 22.3719 26.5007 22.2257ZM22.7225 21.4006C22.5872 21.4051 22.4778 21.5285 22.4864 21.6671C22.4947 21.8015 22.6076 21.9059 22.7383 21.9C22.8677 21.8942 22.9785 21.7793 22.9785 21.651C22.9785 21.518 22.854 21.3963 22.7225 21.4006V21.4006ZM27.0211 23.1889C27.1411 23.1707 27.2162 23.1058 27.2126 22.9799C27.209 22.8515 27.1282 22.7882 27.0045 22.7927C26.8862 22.797 26.8188 22.867 26.8205 22.9868C26.8222 23.1133 26.8969 23.1761 27.0211 23.1889V23.1889ZM22.143 21.7043C22.0403 21.6358 21.9737 21.5575 21.9246 21.5673C21.8635 21.5795 21.8167 21.6642 21.7638 21.7177C21.8204 21.7676 21.8728 21.8492 21.9349 21.8573C21.9843 21.8638 22.0454 21.7803 22.143 21.7043V21.7043ZM25.4537 21.7705C25.4792 21.771 25.5046 21.7715 25.5301 21.772C25.5712 21.7104 25.6468 21.6467 25.6434 21.5877C25.6403 21.5342 25.5529 21.4485 25.4992 21.4458C25.4495 21.4434 25.3586 21.528 25.3528 21.5816C25.3464 21.6402 25.4168 21.7072 25.4537 21.7705ZM19.3218 25.2567C19.3447 25.2581 19.3676 25.2595 19.3906 25.2609C19.4334 25.2004 19.5108 25.1388 19.5087 25.0799C19.5068 25.0272 19.4106 24.9315 19.3682 24.9377C19.3076 24.9465 19.2278 25.0241 19.2136 25.0855C19.203 25.1318 19.2824 25.1989 19.3218 25.2567V25.2567ZM20.0729 24.9017L20.0047 24.9046C19.9644 24.9624 19.898 25.0169 19.89 25.0788C19.8781 25.1715 19.9463 25.251 20.0438 25.2279C20.1027 25.2139 20.1848 25.1363 20.1866 25.0849C20.1886 25.0252 20.1141 24.9629 20.0729 24.9017V24.9017ZM25.1333 22.2992C25.2048 22.1954 25.2701 22.1408 25.2795 22.0778C25.2946 21.9763 25.2137 21.9087 25.1206 21.9323C25.0621 21.947 24.9866 22.0286 24.9825 22.0849C24.9785 22.1383 25.0575 22.1979 25.1333 22.2992V22.2992ZM20.3825 23.4917C20.4562 23.3859 20.5332 23.3238 20.5272 23.271C20.5208 23.2144 20.4436 23.1355 20.3845 23.1219C20.2884 23.0999 20.2145 23.1747 20.2308 23.2731C20.2411 23.3353 20.3075 23.388 20.3825 23.4917V23.4917ZM19.7298 23.7816C19.708 23.7816 19.6863 23.7816 19.6645 23.7816C19.6239 23.8404 19.5592 23.8951 19.5484 23.959C19.5316 24.0581 19.6066 24.1316 19.7019 24.1097C19.7588 24.0966 19.8331 24.0145 19.8376 23.9584C19.842 23.9027 19.7689 23.8408 19.7298 23.7816V23.7816ZM19.608 25.9612C19.585 25.9613 19.562 25.9615 19.539 25.9616C19.5008 26.0201 19.4281 26.0822 19.4338 26.1359C19.4398 26.1921 19.5138 26.2714 19.5713 26.285C19.6682 26.308 19.7414 26.234 19.7247 26.135C19.7142 26.0723 19.6488 26.0188 19.608 25.9612V25.9612ZM23.5435 21.0423C23.5201 21.0421 23.4968 21.0419 23.4735 21.0417C23.4347 21.0989 23.361 21.1598 23.3666 21.2122C23.3727 21.2692 23.4447 21.35 23.5017 21.3638C23.597 21.3869 23.671 21.3131 23.6567 21.2152C23.6476 21.1533 23.5831 21.0996 23.5435 21.0423V21.0423Z" fill="white"/>
<path d="M17.9259 13.774C16.4708 13.7745 15.2813 12.5864 15.2765 11.1276C15.2717 9.66566 16.4665 8.47302 17.9336 8.47535C19.3885 8.47765 20.5797 9.67288 20.5768 11.1276C20.574 12.5809 19.3793 13.7735 17.9259 13.774V13.774ZM15.9313 10.6731C15.9313 10.705 15.9299 10.7371 15.9315 10.769C16.0058 12.2164 17.7061 13.3033 19.059 12.7685C19.9007 12.4357 20.1938 11.6884 19.7203 10.9222C19.152 10.0024 18.2903 9.49677 17.2097 9.43683C16.4368 9.39395 15.9323 9.91435 15.9313 10.6731V10.6731Z" fill="white"/>
<path d="M13.979 23.4534C14.2331 23.0322 14.4828 22.6181 14.7328 22.2041C15.1731 21.4748 15.6156 20.7468 16.0515 20.0148C16.108 19.92 16.1655 19.8901 16.2764 19.8888C16.7537 19.8834 17.2309 19.8634 17.7104 19.8486C17.5518 20.1136 17.3815 20.3997 17.2095 20.6848C16.673 21.5737 16.1352 22.4619 15.5993 23.3511C15.2873 23.8687 14.8606 23.98 14.343 23.6747C14.2242 23.6047 14.1072 23.5315 13.979 23.4534V23.4534Z" fill="white"/>
<path d="M10.3277 15.3569C10.446 15.6406 10.5532 15.9168 10.6759 16.1859C10.7574 16.3646 10.866 16.5308 10.9515 16.7079C10.9741 16.7547 10.9787 16.8344 10.9536 16.8762C10.2721 18.0135 9.58575 19.1478 8.89992 20.2824C8.88654 20.3045 8.8701 20.3248 8.84337 20.3625C8.65201 20.2383 8.45152 20.1342 8.28223 19.9927C7.97445 19.7355 7.9294 19.3167 8.14904 18.9488C8.43014 18.4779 8.71446 18.0089 8.99775 17.5393C9.41305 16.8509 9.82852 16.1626 10.2445 15.4746C10.2682 15.4354 10.2975 15.3995 10.3277 15.3569L10.3277 15.3569Z" fill="white"/>
<path d="M15.874 8.18204C15.6564 8.54356 15.4426 8.89891 15.2194 9.26977C15.325 9.33914 15.4251 9.40483 15.512 9.4619C15.3597 9.81874 15.2106 10.1681 15.0682 10.5015C14.7141 10.5431 14.338 10.5536 13.9797 10.6389C13.6259 10.7232 13.2901 10.8831 12.9456 11.0101C13.0027 10.9121 13.0682 10.7967 13.1366 10.6832C13.3814 10.2769 13.6274 9.87126 13.8726 9.46521C14.077 9.1268 14.3793 8.99133 14.7662 9.05312C14.8117 9.0604 14.8878 9.02512 14.9132 8.98591C15.0578 8.76226 15.1874 8.52892 15.3308 8.30441C15.3807 8.22619 15.375 8.17116 15.3159 8.10755C15.2798 8.06872 15.2486 8.02455 15.2201 7.97968C15.1039 7.797 14.9916 7.67627 14.7216 7.71991C14.3616 7.77808 14.0486 7.51595 13.946 7.16443C13.8459 6.82175 13.9824 6.4672 14.2875 6.2771C14.5884 6.08966 14.9756 6.12723 15.235 6.36904C15.5 6.61619 15.5734 7.00307 15.3883 7.31791C15.3235 7.42818 15.3512 7.48561 15.4136 7.56664C15.5693 7.76907 15.7199 7.9754 15.874 8.18204V8.18204Z" fill="white"/>
<path d="M20.3121 15.4929C20.3291 14.7212 20.1778 14.0132 19.7786 13.3934C20.0299 13.0848 20.2734 12.7858 20.5235 12.4788C20.696 12.5848 20.8917 12.6942 21.0758 12.8207C21.4137 13.0527 21.5272 13.5028 21.3231 13.8562C21.0141 14.3914 20.6879 14.9167 20.3683 15.4458C20.3614 15.4573 20.3468 15.4643 20.3121 15.4929V15.4929Z" fill="white"/>
<path d="M16.3487 17.7162V19.6506C15.8823 19.6292 15.4143 19.6473 15.1037 19.2143C14.8711 18.8901 14.8462 18.5401 15.0304 18.1895C15.2055 17.8561 15.4953 17.6829 15.8733 17.6781C16.0261 17.6761 16.1794 17.7017 16.3487 17.7162V17.7162Z" fill="white"/>
<path d="M11.0989 16.4924C11.6616 16.199 12.1995 15.9184 12.7377 15.6383C12.7652 15.6239 12.7949 15.6138 12.8258 15.6008C13.0971 15.9504 13.3045 16.3072 13.1308 16.7646C12.9983 17.1134 12.7457 17.3268 12.3817 17.3871C12.0178 17.4474 11.7032 17.3314 11.4715 17.0403C11.3396 16.8746 11.2318 16.6898 11.0989 16.4924H11.0989Z" fill="white"/>
<path d="M28.6168 19.2526C27.8806 19.2479 27.2955 18.6515 27.2982 17.9085C27.3009 17.1719 27.9009 16.5806 28.639 16.587C29.3769 16.5933 29.9631 17.19 29.9594 17.9308C29.9556 18.6666 29.3556 19.2574 28.6168 19.2526V19.2526ZM27.6178 17.9137C27.6172 18.4713 28.0644 18.9254 28.6176 18.9288C29.1838 18.9324 29.6362 18.483 29.6355 17.9178C29.6348 17.3597 29.1875 16.9119 28.6296 16.9107C28.0743 16.9095 27.6185 17.3614 27.6178 17.9137V17.9137Z" fill="white"/>
<path d="M17.8411 8.18623C17.4145 8.29606 17.0117 8.39977 16.5914 8.50798C16.5587 8.37705 16.5141 8.22098 16.4818 8.06239C16.4597 7.95358 16.5282 7.89117 16.6256 7.86649C16.924 7.79088 17.2232 7.71834 17.5227 7.64728C17.6336 7.62097 17.7091 7.66224 17.7378 7.77759C17.7735 7.92118 17.8103 8.06451 17.8411 8.18623V8.18623Z" fill="white"/>
<path d="M21.3468 18.3008C21.4286 18.3582 21.5203 18.4224 21.6015 18.4794C21.5726 18.5641 21.5367 18.6693 21.5026 18.7692H21.196C21.167 18.6816 21.1315 18.575 21.0995 18.4785C21.1755 18.4239 21.2694 18.3564 21.3468 18.3008H21.3468Z" fill="white"/>
<path d="M30.5166 24.906C30.6009 24.8447 30.6929 24.7776 30.767 24.7236C30.8478 24.7805 30.9405 24.8458 31.0214 24.9028C30.9913 24.9939 30.9545 25.1051 30.9251 25.1942H30.6151C30.5846 25.1048 30.5479 24.9975 30.5166 24.906V24.906Z" fill="white"/>
<path d="M30.3459 11.8447C30.4308 11.9047 30.526 11.972 30.6012 12.0252C30.5689 12.1203 30.5329 12.2265 30.502 12.3175H30.1973C30.1688 12.2338 30.1324 12.1266 30.0992 12.029C30.1761 11.9716 30.2735 11.8988 30.3459 11.8447V11.8447Z" fill="white"/>
<path d="M27.3802 15.0508C27.3501 15.1429 27.3165 15.2457 27.2855 15.3405H26.973C26.9486 15.2579 26.9161 15.1473 26.8872 15.0492C26.962 14.994 27.0526 14.927 27.1328 14.8677C27.2063 14.9221 27.2977 14.9897 27.3802 15.0508V15.0508Z" fill="white"/>
<path d="M17.0575 25.6242C17.0151 25.7518 16.9797 25.8585 16.9504 25.9467H16.6418C16.6131 25.8583 16.5771 25.7476 16.5389 25.6302C16.6435 25.6243 16.7607 25.5894 16.7789 25.3904C16.8596 25.5449 16.9175 25.664 17.0575 25.6242L17.0575 25.6242Z" fill="white"/>
<path d="M23.8277 10.1933C23.7983 10.2741 23.7594 10.3809 23.7239 10.4783H23.4172C23.3869 10.3893 23.3488 10.2776 23.3191 10.1905C23.4012 10.133 23.4934 10.0684 23.5769 10.01C23.6495 10.063 23.7429 10.1313 23.8277 10.1933V10.1933Z" fill="white"/>
<path d="M24.0369 13.6427C24.1117 13.5893 24.2028 13.5242 24.2882 13.4631C24.3562 13.5142 24.4491 13.584 24.5388 13.6512C24.5091 13.7294 24.4673 13.8395 24.43 13.9379H24.1255C24.101 13.8565 24.0677 13.7454 24.0369 13.6427V13.6427Z" fill="white"/>
<path d="M18.6883 10.9009C18.6625 10.9325 18.642 10.9844 18.6102 10.9926C18.1059 11.1227 17.6005 11.2481 17.0943 11.3705C17.0645 11.3777 17.0261 11.3493 16.9917 11.3375C17.0196 11.308 17.0429 11.2604 17.0761 11.2519C17.5446 11.1319 18.0143 11.0171 18.4838 10.9015C18.5351 10.8889 18.587 10.8786 18.6387 10.8672L18.6883 10.9009V10.9009Z" fill="white"/>
<path d="M17.5095 11.5285C17.5102 11.5342 17.4959 11.4938 17.5041 11.4587C17.5105 11.4317 17.5414 11.3974 17.5678 11.3902C17.7772 11.3335 17.9877 11.2808 18.1991 11.2321C18.225 11.2261 18.258 11.2512 18.2877 11.2619C18.2735 11.2894 18.2645 11.3359 18.2443 11.3414C18.0248 11.4014 17.8036 11.4549 17.5095 11.5285V11.5285Z" fill="white"/>
<path d="M17.4315 11.0283C17.4149 11.0137 17.3833 10.9983 17.3833 10.9829C17.3834 10.9576 17.3991 10.9146 17.4166 10.9098C17.6418 10.8486 17.8682 10.7913 18.0955 10.738C18.1166 10.733 18.1593 10.7562 18.1668 10.7759C18.1737 10.7942 18.1518 10.8433 18.1342 10.8481C17.9038 10.9106 17.672 10.9676 17.4315 11.0283V11.0283Z" fill="white"/>
</svg>
