<svg width="49" height="51" viewBox="0 0 49 51" fill="none" xmlns="http://www.w3.org/2000/svg">
<path d="M19.5065 23.9713C19.9748 23.9089 20.4339 23.8475 20.8931 23.7865C21.1131 23.7573 21.2652 23.6618 21.3473 23.434C21.6876 22.4902 22.0423 21.5516 22.3997 20.5894C22.181 20.4989 22.0469 20.4433 21.9329 20.3962C21.6365 21.2287 21.3361 22.0275 21.0707 22.8377C20.9488 23.2101 20.737 23.3887 20.3477 23.384C19.6654 23.3756 18.9792 23.4238 18.3013 23.3678C16.8174 23.2451 15.6766 24.1127 15.4765 25.5723C15.3006 26.8561 16.2514 28.0374 17.647 28.2691C17.7085 28.2793 17.7695 28.292 17.8734 28.3116C17.5582 28.8361 17.2593 29.3354 16.9586 29.8337C14.6897 33.5925 12.4239 37.3532 10.1489 41.1084C9.55743 42.0846 8.66011 42.5353 7.5364 42.3926C6.39503 42.2475 5.65002 41.5663 5.33379 40.4553C5.14472 39.791 5.21513 39.1331 5.56952 38.5378C6.723 36.6004 7.89134 34.6718 9.05587 32.7409C10.1812 30.875 11.309 29.0106 12.4351 27.1451C12.4622 27.1002 12.4817 27.0506 12.5195 26.973C12.3394 26.8646 12.1677 26.7612 11.9696 26.6419C11.477 27.4567 10.9959 28.2513 10.5158 29.0465C8.70046 32.0534 6.89086 35.0638 5.06702 38.0655C4.51264 38.9779 3.67253 39.4218 2.60676 39.3498C1.63588 39.2841 0.905034 38.7901 0.463711 37.9216C0.0476888 37.1029 0.0403305 36.2562 0.510877 35.4613C1.76443 33.3438 3.04214 31.2406 4.31272 29.1332C5.60013 26.9979 6.89045 24.8643 8.1799 22.7302C8.21303 22.6753 8.25079 22.6233 8.30789 22.5378C8.39146 22.6459 8.46077 22.7362 8.53073 22.826C9.34986 23.8774 10.8181 24.0985 11.906 23.3343C12.9827 22.578 13.2435 21.1175 12.5575 19.9764C12.1409 19.2834 11.8048 18.5418 11.432 17.8223C11.3348 17.6346 11.3752 17.4823 11.5181 17.3271C12.1478 16.643 12.7695 15.9514 13.4121 15.2429C13.3345 15.1801 13.2272 15.0932 13.0836 14.977C12.9174 15.1253 12.7374 15.2611 12.5872 15.4244C12.0733 15.9825 11.5795 16.5593 11.058 17.11C10.8474 17.3323 10.8178 17.5578 10.9151 17.8201C11.0691 18.2349 11.2317 18.6466 11.403 19.0916C10.2587 19.6865 9.10835 20.2845 7.89767 20.9139C7.68416 20.4009 7.46127 19.9237 7.28527 19.4298C6.9538 18.4996 6.75664 17.5396 6.98267 16.558C7.08279 16.1232 7.23432 15.6626 7.49234 15.3083C8.71842 13.6245 10.1177 12.1035 11.8987 10.9805C13.0298 10.2673 14.2537 9.8355 15.6029 9.80952C15.7962 9.8058 15.99 9.82648 16.2123 9.83726C16.0933 12.2774 16.9323 14.2592 19.0403 15.5343C21.1503 16.8106 23.2917 16.6464 25.4674 15.3625C25.6946 15.8983 25.962 16.416 26.1366 16.9633C26.5767 18.3426 26.5037 19.7461 26.229 21.1458C25.9308 22.6651 25.39 24.1045 24.7404 25.5032C24.2777 26.4993 23.4429 27.081 22.439 27.4389C21.5628 27.7514 20.6499 27.8686 19.7228 27.8847C19.6602 27.8857 19.5974 27.873 19.5065 27.8638V23.9713ZM20.7129 19.8975C19.4082 19.1105 18.1415 18.3463 16.8522 17.5685C16.431 18.267 16.026 18.9385 15.6069 19.6333C16.9064 20.4173 18.179 21.1851 19.4666 21.962C19.8895 21.2615 20.2915 20.5957 20.7129 19.8975ZM13.1772 18.1664C13.7317 18.5 14.2633 18.8199 14.8205 19.1551C15.2441 18.4513 15.6471 17.7817 16.0623 17.0918C15.4991 16.7521 14.9745 16.4357 14.4229 16.103C14.0047 16.7957 13.599 17.4676 13.1772 18.1664Z" fill="white"/>
<path d="M33.905 30.0256C39.5388 30.0252 44.1072 34.6009 44.0964 40.2335C44.0856 45.8609 39.5319 50.4157 33.9116 50.421C28.2774 50.4262 23.7046 45.8591 23.7028 40.2247C23.7009 34.5871 28.2633 30.0261 33.905 30.0256ZM28.9455 35.0726C29.4918 35.0673 29.9375 34.617 29.9349 34.0729C29.9323 33.521 29.4945 33.0888 28.9373 33.0878C28.3652 33.0869 27.9236 33.5312 27.9339 34.0973C27.9439 34.6414 28.3965 35.0778 28.9455 35.0726ZM33.4644 33.8615C33.4588 34.2711 33.7898 34.6061 34.1994 34.6055C34.5955 34.6048 34.9241 34.2876 34.9361 33.8944C34.9486 33.4886 34.6207 33.142 34.2159 33.1332C33.8063 33.1242 33.4701 33.4501 33.4644 33.8615ZM28.1399 37.2757C28.142 36.8539 27.8187 36.5299 27.4016 36.5359C26.9975 36.5418 26.6876 36.8575 26.6856 37.2656C26.6834 37.6889 27.0043 38.0097 27.4244 38.0044C27.8292 37.9992 28.1379 37.6848 28.1399 37.2757ZM34.3706 31.8672C34.3605 32.2229 34.6334 32.5142 34.985 32.5229C35.3383 32.5317 35.6275 32.2518 35.631 31.8978C35.6343 31.5518 35.3753 31.2762 35.0316 31.26C34.6757 31.2433 34.3806 31.5144 34.3706 31.8672ZM39.5261 33.1051C39.52 32.8126 39.268 32.5721 38.9788 32.5826C38.6843 32.5933 38.4576 32.8415 38.4695 33.1402C38.4808 33.4223 38.7137 33.6439 38.9983 33.6433C39.2966 33.6428 39.5323 33.4024 39.5261 33.1051ZM31.8404 31.4266C31.5653 31.4356 31.3428 31.6868 31.3602 31.9686C31.3771 32.2421 31.6067 32.4544 31.8726 32.4425C32.1359 32.4307 32.3613 32.197 32.3613 31.9359C32.3613 31.6654 32.108 31.4178 31.8404 31.4266ZM40.5847 35.0644C40.8287 35.0274 40.9816 34.8952 40.9743 34.6392C40.9669 34.3779 40.8026 34.2492 40.551 34.2584C40.3104 34.2672 40.1731 34.4094 40.1765 34.6531C40.1801 34.9105 40.3321 35.0383 40.5847 35.0644V35.0644ZM30.6616 32.0443C30.4528 31.905 30.3173 31.7458 30.2175 31.7656C30.093 31.7904 29.998 31.9629 29.8902 32.0716C30.0054 32.1731 30.1121 32.3392 30.2384 32.3556C30.3388 32.3687 30.463 32.199 30.6616 32.0443V32.0443ZM37.3964 32.179C37.4481 32.18 37.4999 32.181 37.5517 32.182C37.6354 32.0567 37.7892 31.9272 37.7822 31.8072C37.7758 31.6983 37.598 31.5239 37.4889 31.5186C37.3877 31.5136 37.2029 31.6858 37.1911 31.7948C37.1781 31.914 37.3212 32.0502 37.3964 32.179ZM24.9228 39.2706C24.9694 39.2734 25.016 39.2763 25.0626 39.2791C25.1497 39.1562 25.3072 39.0307 25.3029 38.9111C25.2991 38.8038 25.1035 38.6091 25.0171 38.6217C24.8938 38.6397 24.7315 38.7974 24.7027 38.9224C24.681 39.0166 24.8427 39.153 24.9228 39.2706ZM26.4506 38.5485L26.3119 38.5545C26.23 38.6721 26.0949 38.7828 26.0787 38.9088C26.0543 39.0973 26.1931 39.2591 26.3916 39.212C26.5114 39.1835 26.6783 39.0257 26.6819 38.9212C26.686 38.7997 26.5346 38.673 26.4506 38.5485ZM36.7446 33.2545C36.89 33.0433 37.0228 32.9322 37.0419 32.8042C37.0727 32.5977 36.9081 32.4601 36.7187 32.5081C36.5998 32.5381 36.4461 32.704 36.4377 32.8185C36.4297 32.9272 36.5904 33.0484 36.7446 33.2545ZM27.0804 35.6803C27.2304 35.4651 27.387 35.3387 27.3748 35.2314C27.3617 35.1161 27.2047 34.9557 27.0845 34.9281C26.889 34.8832 26.7387 35.0354 26.7719 35.2357C26.7929 35.362 26.9279 35.4694 27.0804 35.6803ZM25.7527 36.27C25.7084 36.27 25.6641 36.27 25.6199 36.27C25.5374 36.3896 25.4056 36.5009 25.3837 36.6308C25.3496 36.8325 25.5022 36.982 25.696 36.9374C25.8118 36.9108 25.9628 36.7437 25.9719 36.6296C25.981 36.5163 25.8322 36.3904 25.7527 36.27ZM25.505 40.7037C25.4582 40.704 25.4114 40.7043 25.3646 40.7046C25.2869 40.8235 25.139 40.9498 25.1507 41.0592C25.1628 41.1735 25.3134 41.3348 25.4303 41.3625C25.6274 41.4092 25.7763 41.2586 25.7424 41.0573C25.7209 40.9297 25.588 40.8209 25.505 40.7037V40.7037ZM33.5105 30.6977C33.463 30.6973 33.4156 30.6969 33.3681 30.6965C33.2892 30.8128 33.1394 30.9366 33.1507 31.0433C33.1631 31.1593 33.3097 31.3237 33.4256 31.3518C33.6195 31.3987 33.77 31.2485 33.7407 31.0494C33.7223 30.9236 33.5911 30.8144 33.5105 30.6977Z" fill="white"/>
<path d="M22.0832 15.9122C19.1232 15.9133 16.7036 13.4964 16.6939 10.529C16.6841 7.55513 19.1145 5.12906 22.0989 5.1338C25.0585 5.13849 27.4816 7.56983 27.4758 10.529C27.47 13.4853 25.0399 15.9112 22.0832 15.9122ZM18.0259 9.60438C18.0259 9.66942 18.023 9.73462 18.0263 9.79949C18.1775 12.7438 21.6362 14.9549 24.3882 13.8669C26.1004 13.19 26.6966 11.6698 25.7336 10.1112C24.5774 8.24021 22.8245 7.21158 20.6265 7.08964C19.0541 7.00242 18.0278 8.06101 18.0259 9.60438V9.60438Z" fill="white"/>
<path d="M14.0546 35.6025C14.5715 34.7458 15.0795 33.9033 15.5879 33.0612C16.4836 31.5777 17.3837 30.0968 18.2704 28.6079C18.3853 28.4149 18.5023 28.354 18.7279 28.3515C19.6989 28.3404 20.6695 28.2998 21.6451 28.2698C21.3223 28.8087 20.9759 29.3907 20.626 29.9706C19.5347 31.779 18.4408 33.5857 17.3505 35.3946C16.716 36.4474 15.848 36.6738 14.795 36.0528C14.5533 35.9103 14.3153 35.7614 14.0546 35.6025Z" fill="white"/>
<path d="M6.62714 19.1326C6.86762 19.7097 7.08578 20.2714 7.33543 20.8188C7.50124 21.1823 7.72206 21.5205 7.89608 21.8808C7.94198 21.9758 7.95134 22.138 7.90034 22.2231C6.51405 24.5365 5.11777 26.8439 3.72265 29.152C3.69544 29.197 3.662 29.2383 3.60763 29.3149C3.21836 29.0623 2.81052 28.8504 2.46614 28.5627C1.84007 28.0395 1.74843 27.1876 2.19521 26.4391C2.76702 25.4812 3.34539 24.5272 3.92167 23.5719C4.76646 22.1715 5.61161 20.7714 6.45785 19.3719C6.50609 19.2921 6.56553 19.2191 6.62714 19.1326L6.62714 19.1326Z" fill="white"/>
<path d="M17.9093 4.53729C17.4668 5.27269 17.0317 5.99554 16.5777 6.74996C16.7926 6.89106 16.9962 7.0247 17.173 7.14078C16.8631 7.86667 16.5598 8.57723 16.2702 9.25552C15.5498 9.34019 14.7847 9.36159 14.0559 9.53513C13.3361 9.70651 12.653 10.0317 11.9523 10.29C12.0685 10.0908 12.2017 9.85613 12.3409 9.6251C12.8389 8.79859 13.3392 7.9735 13.838 7.14751C14.2538 6.45912 14.8687 6.18356 15.6558 6.30925C15.7485 6.32405 15.9033 6.25228 15.9548 6.17252C16.249 5.71757 16.5126 5.24291 16.8043 4.78622C16.9059 4.6271 16.8942 4.51515 16.774 4.38575C16.7006 4.30678 16.6371 4.21692 16.5791 4.12565C16.3428 3.75404 16.1144 3.50845 15.5651 3.59722C14.8327 3.71555 14.1961 3.18233 13.9873 2.46726C13.7838 1.77018 14.0614 1.04896 14.6821 0.662265C15.2941 0.280965 16.0818 0.357405 16.6094 0.849287C17.1486 1.35204 17.2978 2.13903 16.9213 2.77947C16.7894 3.00378 16.8459 3.1206 16.9727 3.28545C17.2895 3.69722 17.5959 4.11694 17.9093 4.53729Z" fill="white"/>
<path d="M26.9373 19.4092C26.9719 17.8394 26.6641 16.3991 25.8521 15.1384C26.3634 14.5106 26.8587 13.9025 27.3674 13.2778C27.7182 13.4935 28.1164 13.7161 28.4909 13.9733C29.1783 14.4453 29.4092 15.3608 28.994 16.0798C28.3654 17.1685 27.7018 18.2371 27.0517 19.3134C27.0376 19.3369 27.008 19.351 26.9373 19.4092Z" fill="white"/>
<path d="M18.8749 23.9317V27.8667C17.9262 27.8231 16.9741 27.8599 16.3423 26.9792C15.8692 26.3196 15.8186 25.6077 16.1932 24.8945C16.5494 24.2164 17.139 23.8641 17.9078 23.8542C18.2188 23.8502 18.5305 23.9023 18.8749 23.9317Z" fill="white"/>
<path d="M8.19568 21.4423C9.34031 20.8455 10.4346 20.2746 11.5294 19.7048C11.5853 19.6757 11.6457 19.6551 11.7086 19.6287C12.2606 20.3398 12.6824 21.0655 12.329 21.996C12.0596 22.7056 11.5456 23.1397 10.8051 23.2624C10.065 23.385 9.42491 23.1491 8.95366 22.5569C8.68545 22.2198 8.4661 21.8439 8.19568 21.4423H8.19568Z" fill="white"/>
<path d="M43.8309 27.0571C42.3332 27.0476 41.1431 25.8344 41.1486 24.3229C41.154 22.8246 42.3744 21.6217 43.8761 21.6346C45.377 21.6475 46.5695 22.8613 46.5619 24.3683C46.5543 25.8649 45.3336 27.0668 43.8309 27.0571ZM41.7987 24.3335C41.7974 25.4677 42.7071 26.3915 43.8325 26.3985C44.9843 26.4056 45.9046 25.4914 45.9031 24.3417C45.9016 23.2065 44.9917 22.2956 43.8568 22.2932C42.7273 22.2907 41.8 23.21 41.7987 24.3335Z" fill="white"/>
<path d="M21.9108 4.5457C21.043 4.76912 20.2237 4.98007 19.3688 5.20019C19.3021 4.93386 19.2114 4.61638 19.1458 4.29379C19.1008 4.07243 19.2401 3.94549 19.4383 3.89528C20.0452 3.74147 20.6538 3.59392 21.2631 3.44937C21.4887 3.39585 21.6424 3.47979 21.7007 3.71443C21.7733 4.00653 21.8481 4.29809 21.9108 4.5457V4.5457Z" fill="white"/>
<path d="M29.0421 25.1211C29.2085 25.2378 29.395 25.3686 29.5602 25.4844C29.5014 25.6567 29.4284 25.8707 29.3591 26.0739H28.7355C28.6763 25.8958 28.6042 25.6788 28.5391 25.4826C28.6937 25.3715 28.8846 25.2342 29.0421 25.1211H29.0421Z" fill="white"/>
<path d="M47.6953 38.5573C47.8667 38.4325 48.0539 38.2961 48.2047 38.1863C48.3689 38.302 48.5575 38.4348 48.7221 38.5508C48.6609 38.736 48.5861 38.9624 48.5263 39.1434H47.8957C47.8335 38.9616 47.7589 38.7433 47.6953 38.5573Z" fill="white"/>
<path d="M47.3479 11.9878C47.5206 12.1099 47.7142 12.2467 47.8673 12.355C47.8016 12.5484 47.7283 12.7643 47.6655 12.9495H47.0456C46.9877 12.7792 46.9136 12.5612 46.8462 12.3627C47.0025 12.2459 47.2006 12.0978 47.3479 11.9878Z" fill="white"/>
<path d="M41.3153 18.5097C41.254 18.697 41.1856 18.9063 41.1226 19.0991H40.4869C40.4373 18.931 40.3711 18.706 40.3124 18.5065C40.4644 18.3941 40.6488 18.2579 40.8119 18.1372C40.9616 18.2479 41.1473 18.3854 41.3153 18.5097V18.5097Z" fill="white"/>
<path d="M20.3169 40.0181C20.2306 40.2776 20.1585 40.4947 20.0989 40.6742H19.4713C19.4128 40.4943 19.3396 40.2692 19.262 40.0303C19.4747 40.0183 19.713 39.9474 19.7501 39.5425C19.9142 39.8568 20.0319 40.099 20.3169 40.0181L20.3169 40.0181Z" fill="white"/>
<path d="M34.0888 8.62861C34.0288 8.79301 33.9497 9.01025 33.8775 9.2084H33.2537C33.192 9.02732 33.1146 8.80026 33.0541 8.62292C33.2211 8.50602 33.4086 8.37471 33.5784 8.25586C33.7261 8.36372 33.9162 8.50256 34.0888 8.62861V8.62861Z" fill="white"/>
<path d="M34.5143 15.6456C34.6665 15.5368 34.8518 15.4044 35.0256 15.2803C35.1639 15.3841 35.3529 15.526 35.5352 15.6629C35.4749 15.8219 35.39 16.0459 35.314 16.2461H34.6946C34.6448 16.0804 34.577 15.8544 34.5143 15.6456Z" fill="white"/>
<path d="M23.634 10.0682C23.5816 10.1324 23.5399 10.2379 23.4752 10.2546C22.4495 10.5192 21.4213 10.7744 20.3916 11.0233C20.331 11.0379 20.2528 10.9802 20.1829 10.9562C20.2396 10.8962 20.287 10.7993 20.3546 10.782C21.3075 10.538 22.2631 10.3046 23.2182 10.0693C23.3225 10.0436 23.4281 10.0227 23.5331 9.99951L23.634 10.0682Z" fill="white"/>
<path d="M21.2364 11.3446C21.2378 11.3561 21.2087 11.2739 21.2254 11.2025C21.2383 11.1476 21.3011 11.0778 21.3549 11.0633C21.7808 10.9479 22.2091 10.8407 22.6391 10.7416C22.6918 10.7295 22.759 10.7805 22.8194 10.8022C22.7905 10.8581 22.7722 10.9528 22.731 10.964C22.2846 11.0859 21.8345 11.1948 21.2364 11.3446Z" fill="white"/>
<path d="M21.0776 10.3273C21.044 10.2976 20.9795 10.2662 20.9796 10.235C20.9798 10.1836 21.0118 10.096 21.0474 10.0863C21.5055 9.96171 21.9661 9.84527 22.4283 9.73673C22.4712 9.72665 22.5582 9.77386 22.5734 9.81393C22.5875 9.85115 22.5429 9.95095 22.5071 9.96065C22.0385 10.0878 21.5668 10.2039 21.0776 10.3273V10.3273Z" fill="white"/>
</svg>
