<svg width="39" height="39" viewBox="0 0 39 39" fill="none" xmlns="http://www.w3.org/2000/svg">
<path d="M19.1397 37.9495C29.1183 37.9495 37.2075 29.8602 37.2075 19.8816C37.2075 9.90299 29.1183 1.81372 19.1397 1.81372C9.16104 1.81372 1.07178 9.90299 1.07178 19.8816C1.07178 29.8602 9.16104 37.9495 19.1397 37.9495Z" stroke="white" stroke-width="2" stroke-miterlimit="10"/>
<path fill-rule="evenodd" clip-rule="evenodd" d="M18.4293 24.2551C18.46 24.2327 18.4894 24.2088 18.5176 24.1837C18.9608 23.7875 19.0927 23.0597 18.7972 22.4C18.5444 21.8358 18.328 21.9855 17.98 22.2264C17.8415 22.3223 17.6821 22.4326 17.4913 22.5181C17.2924 22.7492 17.0539 22.8831 16.8485 22.9983C16.4918 23.1986 16.235 23.3427 16.4592 23.8433C16.4813 23.8927 16.5038 23.9347 16.5269 23.9707L15.3058 25.0624L15.2493 25.0271C15.1421 24.9601 15.0007 24.9925 14.9337 25.1C14.8666 25.2072 14.8992 25.3485 15.0065 25.4156L15.4801 25.7116C15.4892 25.9285 15.5401 26.1521 15.637 26.3684C15.8048 26.743 16.0851 27.0425 16.4261 27.2116C16.782 27.3882 17.1611 27.4033 17.4936 27.2544C17.6034 27.2052 17.702 27.1404 17.7888 27.0628C18.232 26.6666 18.3639 25.9389 18.0684 25.2792C18.053 25.2449 18.0368 25.2114 18.0197 25.1787C18.2784 24.9343 18.4206 24.5983 18.4293 24.2551ZM18.3275 23.7141C18.5288 23.4309 18.5614 22.9942 18.3791 22.5874C18.2341 22.2637 18.1696 22.3663 18.0553 22.5481C18.0084 22.6227 17.9532 22.7105 17.8806 22.7878C17.8893 22.7994 17.8969 22.8121 17.9034 22.8257L18.3022 23.6579C18.3111 23.6765 18.3196 23.6952 18.3275 23.7141ZM16.9395 23.6019L17.5191 23.0837L17.5026 23.0493L17.4981 23.0533C17.3893 23.1506 17.2579 23.189 17.1453 23.2218C16.9544 23.2776 16.8179 23.3174 16.9395 23.6019ZM16.2186 24.9285C15.9217 25.194 15.8431 25.7077 16.0551 26.1811C16.1796 26.459 16.3836 26.6792 16.6296 26.8012C16.8607 26.9158 17.101 26.9283 17.3063 26.8363C17.7462 26.6392 17.9004 26.0247 17.6503 25.4665C17.4002 24.9082 16.8389 24.6143 16.3991 24.8113C16.3322 24.8413 16.2719 24.8809 16.2186 24.9285ZM17.1885 25.6733C17.2893 25.8983 17.2207 26.1481 17.0352 26.2312C16.8498 26.3143 16.6177 26.1992 16.5169 25.9741C16.4161 25.7491 16.4847 25.4993 16.6701 25.4163C16.8556 25.3332 17.0876 25.4483 17.1885 25.6733Z" fill="white"/>
<path fill-rule="evenodd" clip-rule="evenodd" d="M26.3561 17.2229C26.3868 17.2005 26.4162 17.1766 26.4444 17.1514C26.8875 16.7552 27.0195 16.0275 26.7239 15.3678C26.4712 14.8036 26.2548 14.9533 25.9067 15.1942C25.7682 15.2901 25.6089 15.4004 25.4181 15.4858C25.2192 15.717 24.9807 15.8508 24.7753 15.9661C24.4185 16.1663 24.1617 16.3105 24.386 16.8111C24.4081 16.8605 24.4306 16.9024 24.4536 16.9384L23.2325 18.0302L23.1761 17.9949C23.0688 17.9278 22.9275 17.9603 22.8604 18.0677C22.7933 18.175 22.826 18.3163 22.9332 18.3834L23.4068 18.6794C23.4159 18.8962 23.4669 19.1198 23.5637 19.3361C23.7316 19.7108 24.0119 20.0103 24.3528 20.1794C24.7087 20.3559 25.0879 20.3711 25.4203 20.2221C25.5301 20.173 25.6288 20.1082 25.7155 20.0306C26.1587 19.6344 26.2907 18.9066 25.9951 18.2469C25.9798 18.2127 25.9636 18.1792 25.9465 18.1465C26.2052 17.9021 26.3474 17.5661 26.3561 17.2229ZM26.2543 16.6819C26.4555 16.3986 26.4881 15.962 26.3059 15.5551C26.1609 15.2315 26.0964 15.3341 25.9821 15.5159C25.9352 15.5904 25.88 15.6783 25.8074 15.7555C25.816 15.7672 25.8237 15.7798 25.8302 15.7934L26.229 16.6257C26.2379 16.6443 26.2463 16.663 26.2543 16.6819ZM24.8662 16.5696L25.4458 16.0514L25.4294 16.0171L25.4248 16.0211C25.3161 16.1183 25.1846 16.1567 25.0721 16.1896C24.8811 16.2454 24.7447 16.2852 24.8662 16.5696ZM24.1454 17.8963C23.8485 18.1617 23.7698 18.6755 23.9819 19.1488C24.1064 19.4268 24.3104 19.647 24.5564 19.769C24.7874 19.8836 25.0278 19.8961 25.2331 19.8041C25.673 19.607 25.8271 18.9925 25.5771 18.4343C25.3269 17.876 24.7657 17.5821 24.3259 17.7791C24.259 17.809 24.1987 17.8487 24.1454 17.8963ZM25.1152 18.6412C25.216 18.8663 25.1474 19.116 24.962 19.1991C24.7765 19.2822 24.5445 19.1671 24.4437 18.9421C24.3428 18.717 24.4115 18.4673 24.5969 18.3842C24.7823 18.3011 25.0144 18.4162 25.1152 18.6412Z" fill="white"/>
<path fill-rule="evenodd" clip-rule="evenodd" d="M10.0551 25.8424C10.0512 25.8383 10.0481 25.8347 10.0457 25.8317C10.1229 25.7098 10.5739 25.4614 10.9758 25.2401L10.9813 25.2371C11.9001 24.7313 13.2886 23.9669 14.8574 22.5643L23.5148 14.8245C25.0837 13.4218 25.9982 12.1273 26.6034 11.2706L26.605 11.2684C26.8702 10.893 27.1685 10.4707 27.2986 10.4072C27.3013 10.41 27.3045 10.4135 27.3081 10.4178C27.8032 11.0046 27.3134 12.2817 25.9291 14.0136C24.8294 15.3896 23.541 16.5828 23.5078 16.6136L23.5072 16.6141L16.6392 22.7542C16.6259 22.7658 15.2859 23.9252 13.7823 24.8731C11.9068 26.0555 10.5831 26.3997 10.0551 25.8424Z" fill="white"/>
<path fill-rule="evenodd" clip-rule="evenodd" d="M10.5894 26.1403C10.5501 26.1566 10.5129 26.1719 10.4779 26.1862C10.5833 26.3053 10.7027 26.4384 10.7927 26.5334C11.3206 27.0908 12.6443 26.7466 14.52 25.5642C16.0235 24.6164 17.3635 23.4569 17.3768 23.4453L24.2448 17.3052L24.2454 17.3047C24.2786 17.2739 25.567 16.0808 26.6668 14.7048C28.051 12.9728 28.5407 11.6957 28.0457 11.1089C28.0018 11.0569 27.8976 10.9394 27.7476 10.7727C27.7283 10.8122 27.7073 10.8547 27.6846 10.9C27.7979 11.5793 27.2641 12.6912 26.1324 14.1071C25.0327 15.483 23.7445 16.6761 23.7111 16.707L23.7105 16.7076L16.8425 22.8477C16.8291 22.8593 15.4891 24.0187 13.9856 24.9666C12.4241 25.951 11.2451 26.3545 10.5894 26.1403Z" fill="white"/>
</svg>
