<svg width="41" height="38" viewBox="0 0 41 38" fill="none" xmlns="http://www.w3.org/2000/svg">
<path fill-rule="evenodd" clip-rule="evenodd" d="M18.61 31.0803C18.6771 31.0313 18.7415 30.9791 18.8031 30.924C19.7719 30.058 20.0603 28.4672 19.4143 27.0252C18.8617 25.7918 18.3888 26.1191 17.628 26.6457C17.3252 26.8552 16.9768 27.0963 16.5597 27.2832C16.125 27.7885 15.6037 28.0811 15.1547 28.333C14.3749 28.7707 13.8135 29.0858 14.3037 30.1801C14.352 30.2881 14.4011 30.3797 14.4516 30.4583L11.7821 32.8449L11.6588 32.7678C11.4244 32.6212 11.1154 32.6921 10.9688 32.927C10.8221 33.1614 10.8935 33.4704 11.1279 33.617L12.1632 34.2641C12.1831 34.7381 12.2944 35.2268 12.5062 35.6996C12.8731 36.5186 13.4857 37.1733 14.2311 37.5429C15.0091 37.9288 15.8378 37.9619 16.5645 37.6363C16.8045 37.5288 17.0202 37.3872 17.2099 37.2176C18.1786 36.3515 18.467 34.7608 17.821 33.3187C17.7875 33.2439 17.752 33.1707 17.7146 33.0991C18.2801 32.5649 18.5909 31.8305 18.61 31.0803ZM18.3875 29.8978C18.8276 29.2787 18.8988 28.3241 18.5004 27.4347C18.1835 26.7272 18.0424 26.9515 17.7926 27.3489C17.6901 27.5119 17.5693 27.704 17.4106 27.8729C17.4295 27.8983 17.4462 27.9259 17.4604 27.9556L18.3321 29.7748C18.3516 29.8155 18.3701 29.8565 18.3875 29.8978ZM15.3534 29.6521L16.6202 28.5195L16.5843 28.4446L16.5746 28.4533C16.3368 28.6658 16.0495 28.7497 15.8035 28.8215C15.3861 28.9434 15.0879 29.0305 15.3534 29.6521ZM13.7777 32.5522C13.1286 33.1325 12.9567 34.2555 13.4202 35.2902C13.6923 35.8977 14.1383 36.3791 14.676 36.6458C15.1811 36.8963 15.7064 36.9236 16.1552 36.7225C17.1168 36.2917 17.4538 34.9485 16.9072 33.7283C16.3604 32.5078 15.1336 31.8654 14.1721 32.296C14.026 32.3615 13.8941 32.4481 13.7777 32.5522ZM15.8977 34.1805C16.118 34.6724 15.9681 35.2184 15.5627 35.4C15.1573 35.5816 14.6501 35.33 14.4297 34.8381C14.2093 34.3462 14.3593 33.8002 14.7647 33.6186C15.17 33.437 15.6773 33.6886 15.8977 34.1805Z" fill="white"/>
<path fill-rule="evenodd" clip-rule="evenodd" d="M35.9374 15.708C36.0045 15.659 36.0689 15.6068 36.1305 15.5517C37.0992 14.6857 37.3877 13.0949 36.7417 11.6529C36.1891 10.4195 35.7162 10.7468 34.9553 11.2734C34.6526 11.4829 34.3042 11.724 33.8871 11.9109C33.4524 12.4162 32.9311 12.7088 32.4821 12.9607C31.7023 13.3984 31.1409 13.7135 31.6311 14.8078C31.6794 14.9158 31.7285 15.0074 31.779 15.086L29.1095 17.4726L28.9862 17.3955C28.7517 17.2489 28.4428 17.3198 28.2962 17.5547C28.1495 17.7891 28.2209 18.0981 28.4553 18.2447L29.4906 18.8918C29.5105 19.3658 29.6218 19.8545 29.8336 20.3273C30.2005 21.1463 30.8131 21.801 31.5585 22.1706C32.3365 22.5565 33.1652 22.5896 33.8919 22.264C34.1319 22.1565 34.3476 22.0149 34.5373 21.8453C35.506 20.9792 35.7944 19.3884 35.1484 17.9464C35.1149 17.8716 35.0794 17.7984 35.042 17.7268C35.6075 17.1926 35.9183 16.4581 35.9374 15.708ZM35.7149 14.5255C36.155 13.9064 36.2262 12.9518 35.8278 12.0624C35.5109 11.3549 35.3698 11.5792 35.12 11.9766C35.0175 12.1396 34.8967 12.3317 34.738 12.5006C34.7569 12.526 34.7736 12.5536 34.7878 12.5833L35.6595 14.4024C35.679 14.4432 35.6975 14.4842 35.7149 14.5255ZM32.6808 14.2798L33.9476 13.1472L33.9117 13.0723L33.902 13.081C33.6642 13.2935 33.3769 13.3774 33.1309 13.4492C32.7135 13.5711 32.4152 13.6582 32.6808 14.2798ZM31.1051 17.1799C30.456 17.7602 30.2841 18.8832 30.7476 19.9179C31.0197 20.5254 31.4657 21.0068 32.0034 21.2735C32.5085 21.524 33.0338 21.5513 33.4826 21.3502C34.4442 20.9194 34.7812 19.5762 34.2346 18.356C33.6878 17.1355 32.4609 16.4931 31.4995 16.9237C31.3534 16.9892 31.2215 17.0758 31.1051 17.1799ZM33.2251 18.8082C33.4454 19.3001 33.2955 19.846 32.8901 20.0276C32.4847 20.2092 31.9775 19.9577 31.7571 19.4658C31.5367 18.9739 31.6867 18.4279 32.0921 18.2463C32.4974 18.0647 33.0047 18.3162 33.2251 18.8082Z" fill="white"/>
<path fill-rule="evenodd" clip-rule="evenodd" d="M0.304847 34.5497C0.296398 34.5408 0.289635 34.533 0.28418 34.5264C0.453082 34.2598 1.43903 33.7169 2.31741 33.2332L2.32931 33.2266C4.33774 32.1211 7.37288 30.4502 10.8023 27.3842L29.7266 10.4655C33.156 7.39951 35.1551 4.56973 36.4779 2.69718L36.4814 2.69219C37.0611 1.87156 37.7132 0.94848 37.9977 0.809814C38.0036 0.815969 38.0106 0.823558 38.0185 0.832947C39.1005 2.11572 38.03 4.9072 35.0041 8.69312C32.6001 11.7009 29.7839 14.309 29.7112 14.3763L29.7099 14.3775L14.6971 27.7992C14.6679 27.8246 11.7388 30.359 8.45224 32.431C4.35238 35.0157 1.4589 35.7681 0.304847 34.5497Z" fill="white"/>
<path fill-rule="evenodd" clip-rule="evenodd" d="M1.4729 35.2011C1.38692 35.2367 1.30553 35.2701 1.229 35.3014C1.45937 35.5619 1.72033 35.8527 1.91707 36.0605C3.07112 37.2789 5.9646 36.5265 10.0646 33.9419C13.3512 31.8699 16.2802 29.3355 16.3095 29.3102L31.3223 15.8884L31.3235 15.8872C31.3962 15.8199 34.2124 13.2118 36.6164 10.204C39.6423 6.41801 40.7128 3.62653 39.6307 2.34376C39.5347 2.23002 39.307 1.97324 38.979 1.60889C38.9369 1.69516 38.8909 1.78807 38.8413 1.88717C39.089 3.37201 37.9221 5.80245 35.4483 8.89751C33.0445 11.9051 30.2285 14.5131 30.1555 14.5807L30.1555 14.5807L30.1542 14.5819L15.1414 28.0036C15.1122 28.0289 12.1831 30.5634 8.8965 32.6354C5.48335 34.7871 2.9063 35.669 1.4729 35.2011Z" fill="white"/>
</svg>
