<svg width="45" height="44" viewBox="0 0 45 44" fill="none" xmlns="http://www.w3.org/2000/svg">
<path d="M22.7412 43.9001C18.4277 43.9004 14.2109 42.6216 10.6243 40.2252C7.03758 37.8289 4.24211 34.4227 2.59141 30.4375C0.940704 26.4523 0.508912 22.0671 1.35064 17.8365C2.19238 13.6059 4.26982 9.7199 7.32024 6.67005C9.34286 4.63398 11.7475 3.01716 14.3962 1.91229C17.045 0.807417 19.8858 0.236231 22.7557 0.231475C25.6257 0.22672 28.4683 0.788488 31.1207 1.88457C33.7731 2.98066 36.1831 4.5895 38.2124 6.61886C40.2418 8.64822 41.8506 11.0582 42.9467 13.7106C44.0428 16.363 44.6046 19.2056 44.5998 22.0756C44.5951 24.9455 44.0239 27.7863 42.919 30.4351C41.8141 33.0838 40.1973 35.4884 38.1612 37.5111C36.1411 39.5426 33.738 41.1534 31.0912 42.2501C28.4443 43.3467 25.6063 43.9075 22.7412 43.9001V43.9001ZM22.7852 7.28205C18.8168 7.28318 15.0101 8.85467 12.1965 11.6533C9.38287 14.4519 7.79107 18.2502 7.76875 22.2185C7.74642 26.1869 9.29538 30.0029 12.0773 32.833C14.8592 35.6631 18.6481 37.2773 22.6162 37.3231H22.7512C26.715 37.3032 30.5102 35.7175 33.3098 32.9114C36.1093 30.1054 37.6863 26.3065 37.697 22.3427C37.7077 18.379 36.1512 14.5717 33.3668 11.7506C30.5824 8.92945 26.7958 7.32326 22.8322 7.28205H22.7852ZM21.9992 31.9381C21.9576 31.9365 21.9165 31.9288 21.8772 31.9151C21.4862 31.7901 21.0942 31.6951 20.6592 31.5941C20.6271 31.5908 20.596 31.5812 20.5676 31.5657C20.5393 31.5503 20.5143 31.5293 20.4942 31.5041C20.4806 31.4725 20.4736 31.4384 20.4736 31.4041C20.4736 31.3697 20.4806 31.3356 20.4942 31.3041C20.6122 30.8781 20.7252 30.4491 20.8342 30.0351L20.8932 29.8121C20.9602 29.5571 21.0292 29.2991 21.0932 29.0441C21.1172 28.9541 21.1322 28.8871 21.1002 28.8381C21.0796 28.8149 21.0546 28.7962 21.0266 28.783C20.9986 28.7698 20.9682 28.7623 20.9372 28.7611C20.6415 28.7103 20.3514 28.6306 20.0712 28.5231C20.0294 28.5053 19.9847 28.4951 19.9392 28.4931C19.8392 28.4931 19.8052 28.5651 19.7712 28.6931C19.6999 28.9677 19.6279 29.2421 19.5552 29.5161C19.4192 30.0301 19.2972 30.4941 19.1842 30.9581C19.1512 31.0951 19.1072 31.1461 19.0232 31.1461C18.9824 31.1442 18.942 31.1368 18.9032 31.1241C18.4372 30.9921 18.0492 30.8921 17.6842 30.8071C17.6511 30.8037 17.619 30.7937 17.5898 30.7778C17.5606 30.7618 17.5349 30.7401 17.5142 30.7141C17.4873 30.6428 17.4894 30.5637 17.5202 30.4941C17.6492 30.0341 17.7732 29.5601 17.8882 29.1151L17.9362 28.9331C17.9972 28.7001 18.0582 28.4651 18.1212 28.2331C18.1353 28.1995 18.1426 28.1635 18.1426 28.1271C18.1426 28.0907 18.1353 28.0546 18.1212 28.0211C18.0779 27.966 18.0147 27.9301 17.9452 27.9211C17.4322 27.7911 16.8992 27.6481 16.4292 27.5211L16.3382 27.4971C15.9222 27.3861 15.4942 27.2711 15.0732 27.1631C14.9672 27.1361 14.9182 27.1101 14.9002 27.0701C14.8822 27.0301 14.8912 26.9791 14.9352 26.8851C15.1482 26.4371 15.3502 25.9751 15.5452 25.5281L15.5812 25.4451L15.6092 25.3801C15.6492 25.2881 15.6912 25.2311 15.7762 25.2311C15.8104 25.2325 15.8441 25.2392 15.8762 25.2511C16.2002 25.3581 16.5262 25.4401 16.8022 25.5051C16.8977 25.5293 16.9957 25.5423 17.0942 25.5441C17.4172 25.5441 17.6022 25.3671 17.7112 24.9521C18.3259 22.6127 18.9412 20.2734 19.5572 17.9341C19.6075 17.8152 19.6307 17.6866 19.625 17.5576C19.6192 17.4287 19.5848 17.3026 19.5241 17.1887C19.4635 17.0748 19.3781 16.9758 19.2743 16.899C19.1706 16.8223 19.0509 16.7697 18.9242 16.7451C18.6242 16.6451 18.3132 16.5741 18.0342 16.5071L17.9342 16.4821L17.8562 16.4631C17.7672 16.4421 17.7222 16.4171 17.7002 16.3781C17.6883 16.3502 17.6821 16.3203 17.6821 16.2901C17.6821 16.2598 17.6883 16.2299 17.7002 16.2021C17.8352 15.7571 17.9502 15.3181 18.0402 14.9021C18.0752 14.7391 18.1312 14.6761 18.2402 14.6761C18.2894 14.6777 18.3381 14.6858 18.3852 14.7001C18.8472 14.8271 19.3192 14.9521 19.7752 15.0721L19.8752 15.0991C20.2972 15.2111 20.7302 15.3251 21.1632 15.4431C21.2155 15.4592 21.2696 15.4686 21.3242 15.4711C21.4342 15.4711 21.4922 15.405 21.5322 15.234C21.6322 14.784 21.7612 14.321 21.8702 13.913L21.8832 13.864C21.9562 13.591 22.0312 13.3081 22.1022 13.0281C22.1382 12.8821 22.1862 12.828 22.2782 12.828C22.3239 12.8302 22.3691 12.839 22.4122 12.854C22.8027 12.9791 23.1996 13.083 23.6012 13.1651C23.6355 13.1677 23.6689 13.1773 23.6993 13.1933C23.7297 13.2093 23.7566 13.2313 23.7782 13.258C23.7929 13.2927 23.8005 13.3299 23.8005 13.3675C23.8005 13.4052 23.7929 13.4424 23.7782 13.477C23.7092 13.734 23.6412 13.9931 23.5782 14.251L23.5582 14.3271C23.4512 14.7331 23.3412 15.1531 23.2252 15.5631C23.1872 15.6961 23.1622 15.8041 23.2112 15.8771C23.2482 15.9311 23.3252 15.962 23.4542 15.977C23.6942 16.0029 23.9296 16.0608 24.1542 16.149C24.2106 16.1721 24.2704 16.1857 24.3312 16.189C24.4392 16.189 24.4972 16.1171 24.5402 15.9331C24.6402 15.5251 24.7402 15.1141 24.8582 14.6951L24.8782 14.6201C24.9492 14.3561 25.0222 14.0841 25.0892 13.8201C25.1262 13.6721 25.1722 13.6201 25.2642 13.6201C25.3092 13.6219 25.3537 13.6303 25.3962 13.6451C25.8172 13.7781 26.2482 13.8821 26.6142 13.9661C26.6932 13.9841 26.7512 14.005 26.7762 14.048C26.7997 14.1051 26.7997 14.169 26.7762 14.2261C26.6702 14.6031 26.5702 14.987 26.4762 15.359L26.4472 15.47C26.3632 15.792 26.2732 16.1381 26.1782 16.4851C26.1232 16.6851 26.1652 16.7651 26.3552 16.8341C27.0979 17.0828 27.7904 17.4617 28.4002 17.9531C28.8031 18.2663 29.1096 18.6865 29.2849 19.1657C29.4601 19.645 29.497 20.1639 29.3912 20.6631C29.344 21.1977 29.1338 21.705 28.789 22.1163C28.4442 22.5277 27.9814 22.8232 27.4632 22.9631C27.4327 22.9724 27.403 22.9841 27.3742 22.9981H27.3642L27.3082 23.0231L27.3582 23.0571L27.5162 23.1631C27.6492 23.2521 27.7782 23.3391 27.9032 23.4321C28.3267 23.7276 28.654 24.1411 28.8444 24.6212C29.0348 25.1012 29.0799 25.6266 28.9742 26.1321C28.8759 26.7568 28.6564 27.3564 28.3282 27.8971C28.0092 28.4112 27.5584 28.8307 27.0226 29.112C26.4869 29.3934 25.8857 29.5263 25.2812 29.4971C25.2142 29.4971 25.1432 29.4971 25.0572 29.4971C24.4183 29.4899 23.7817 29.4179 23.1572 29.2821C23.106 29.2702 23.0538 29.2635 23.0012 29.2621C22.8602 29.2621 22.7852 29.3391 22.7432 29.5271C22.6432 29.9841 22.5162 30.4471 22.3972 30.8951L22.3732 30.9871C22.3122 31.2141 22.2412 31.4781 22.1732 31.7351C22.1442 31.8661 22.1062 31.9391 21.9992 31.9391V31.9381ZM23.4692 27.0321H23.6312H23.7932C23.8612 27.0321 23.9232 27.0321 23.9812 27.0261C24.231 27.0166 24.476 26.9545 24.7 26.8436C24.9241 26.7328 25.1222 26.5759 25.2812 26.3831C25.4116 26.2085 25.5034 26.0082 25.5507 25.7955C25.5979 25.5827 25.5995 25.3624 25.5552 25.1491C25.4817 24.8613 25.3433 24.5941 25.1508 24.368C24.9582 24.1418 24.7166 23.9626 24.4442 23.8441C23.5646 23.398 22.6258 23.0798 21.6562 22.8991L21.5272 22.8691C21.504 22.863 21.4802 22.8597 21.4562 22.8591C21.3792 22.8591 21.3562 22.9101 21.3282 23.0031C21.0682 24.0031 20.7982 25.0171 20.5362 25.9981L20.4542 26.3051C20.4272 26.4051 20.4362 26.4641 20.5612 26.4991L20.5812 26.5051C21.5114 26.8092 22.4786 26.9854 23.4562 27.0291L23.4692 27.0321ZM24.2642 21.6111H24.4172H24.5702C24.6332 21.6111 24.6902 21.6111 24.7462 21.6051C25.0532 21.5921 25.3485 21.4838 25.591 21.2952C25.8335 21.1065 26.0112 20.8469 26.0992 20.5526C26.1873 20.2582 26.1813 19.9437 26.0822 19.6529C25.9831 19.3621 25.7957 19.1094 25.5462 18.9301C25.3561 18.783 25.1502 18.6575 24.9322 18.5561C24.3604 18.3019 23.7639 18.1072 23.1522 17.9751L22.8212 17.8911C22.8007 17.8855 22.7795 17.8824 22.7582 17.8821C22.6672 17.8821 22.6482 17.9561 22.6282 18.0351V18.0411C22.5482 18.3451 22.4686 18.6491 22.3892 18.9531C22.2132 19.6251 22.0322 20.3161 21.8502 20.9941C21.8162 21.1221 21.8402 21.1631 21.9722 21.1991L22.0522 21.2211C22.7545 21.4475 23.4841 21.5786 24.2212 21.6111H24.2642Z" fill="white"/>
</svg>
