<svg width="39" height="39" viewBox="0 0 39 39" fill="none" xmlns="http://www.w3.org/2000/svg">
<path d="M19.1397 37.787C29.1183 37.787 37.2075 29.6977 37.2075 19.7191C37.2075 9.74051 29.1183 1.65125 19.1397 1.65125C9.16104 1.65125 1.07178 9.74051 1.07178 19.7191C1.07178 29.6977 9.16104 37.787 19.1397 37.787Z" stroke="white" stroke-width="2" stroke-miterlimit="10"/>
<path d="M13.3867 12.1603V18.6936C13.3851 18.9136 13.5621 19.0939 13.782 19.0955H13.7837L16.7047 19.0823C17.009 19.0806 17.1976 18.7465 17.0454 18.4786L16.6666 17.8104C16.5078 17.5275 16.1506 17.425 15.8677 17.5838C15.8644 17.5854 15.8611 17.5871 15.8562 17.5904L15.8165 17.6135C15.5386 17.7756 15.183 17.683 15.0209 17.4051C15.0192 17.4018 15.0176 17.3985 15.0143 17.3952C14.9299 17.2464 14.9134 17.0694 14.9663 16.9073L15.5733 15.0564C15.6643 14.7686 15.9587 14.5966 16.2548 14.6562L18.1354 15.0449C18.3008 15.0796 18.443 15.1838 18.5257 15.331C18.6878 15.6155 18.5919 15.9777 18.3107 16.1464L18.271 16.1696C17.9865 16.34 17.8906 16.7055 18.0543 16.9949L18.4282 17.6532C18.534 17.8418 18.7722 17.9113 18.9607 17.8054C19.0236 17.7707 19.0765 17.7177 19.1113 17.6549L20.5717 15.1061C20.6826 14.9142 20.6181 14.6677 20.4279 14.5553L14.8704 11.287C14.2104 10.8999 13.3867 11.3845 13.3867 12.1603Z" fill="white"/>
<path d="M27.7401 18.8542L22.1794 15.5875C21.9925 15.4784 21.7526 15.5412 21.6435 15.7281C21.6418 15.7314 21.6402 15.7347 21.6385 15.7364L20.1896 18.3183C20.0391 18.5863 20.2293 18.9204 20.5336 18.9204H21.488C21.708 18.9187 21.8849 18.7384 21.8833 18.5184V18.0752C21.8816 17.8552 22.0586 17.6749 22.2786 17.6732H22.5548C22.6689 17.6732 22.7765 17.7229 22.8509 17.8089L24.2948 19.4695C24.4272 19.6233 24.4272 19.8499 24.2948 20.0037L22.8509 21.666C22.7765 21.752 22.6689 21.8017 22.5548 21.8017H22.2786C22.0586 21.8 21.8816 21.6197 21.8833 21.3997V20.9565C21.8849 20.7365 21.708 20.5562 21.488 20.5545H20.5435C20.2392 20.5545 20.049 20.8886 20.1995 21.1566L21.6368 23.7187C21.741 23.9089 21.9809 23.9767 22.1694 23.8725C22.1727 23.8708 22.1744 23.8692 22.1777 23.8675L27.7401 20.5975C28.3984 20.2105 28.3984 19.2412 27.7401 18.8542Z" fill="white"/>
<path d="M14.867 28.1512L20.4261 24.8845C20.6163 24.7704 20.6808 24.5256 20.57 24.3337L19.0979 21.765C18.9921 21.5765 18.7522 21.5087 18.5637 21.6162C18.5008 21.6509 18.4495 21.7038 18.4132 21.7667L17.9351 22.6086C17.826 22.8004 17.8905 23.0452 18.079 23.1594L18.4562 23.381C18.6464 23.4951 18.7109 23.7383 18.6017 23.9301L18.4628 24.1749C18.4065 24.2742 18.3106 24.3453 18.1998 24.3684L16.0645 24.8117C15.8676 24.8514 15.6708 24.7373 15.6096 24.5454L14.9199 22.4382C14.8835 22.3291 14.8967 22.21 14.953 22.1091L15.0919 21.8643C15.1978 21.6757 15.4359 21.6079 15.6261 21.7121C15.6278 21.7138 15.6311 21.7154 15.6328 21.7154L16.0099 21.937C16.1968 22.0462 16.4366 21.9834 16.5458 21.7965C16.5474 21.7948 16.5491 21.7915 16.5491 21.7898L17.0205 20.9579C17.1726 20.6899 16.9841 20.3558 16.6798 20.3542L13.7803 20.3442C13.5603 20.3442 13.3817 20.5245 13.3833 20.7445V20.7462V27.2795C13.3833 28.0536 14.207 28.5382 14.867 28.1512Z" fill="white"/>
</svg>
