<svg width="36" height="42" viewBox="0 0 36 42" fill="none" xmlns="http://www.w3.org/2000/svg">
<path d="M0.0462922 2.79166V18.4273C0.0423338 18.9538 0.465882 19.3852 0.992348 19.3892H0.996306L7.98683 19.3575C8.71517 19.3536 9.16643 18.554 8.80225 17.9127L7.89578 16.3135C7.51578 15.6366 6.66077 15.3912 5.98388 15.7712C5.97596 15.7752 5.96805 15.7791 5.95617 15.7871L5.86117 15.8425C5.19616 16.2304 4.34511 16.0087 3.95718 15.3437C3.95323 15.3358 3.94927 15.3279 3.94135 15.32C3.73947 14.9637 3.69989 14.5402 3.82656 14.1522L5.27929 9.72281C5.497 9.03405 6.20159 8.62237 6.91014 8.76488L11.4108 9.6951C11.8067 9.77822 12.1471 10.0276 12.345 10.3799C12.7329 11.0607 12.5034 11.9276 11.8304 12.3314L11.7354 12.3868C11.0546 12.7945 10.825 13.6693 11.2169 14.362L12.1115 15.9375C12.3648 16.3887 12.9348 16.555 13.3861 16.3017C13.5365 16.2185 13.6632 16.0919 13.7463 15.9414L17.2415 9.84156C17.5068 9.38239 17.3524 8.79258 16.8972 8.52341L3.59697 0.701631C2.01757 -0.224633 0.0462922 0.935176 0.0462922 2.79166Z" fill="white"/>
<path d="M34.3972 18.8111L21.0891 10.9933C20.6418 10.732 20.0678 10.8824 19.8065 11.3297C19.8026 11.3377 19.7986 11.3456 19.7947 11.3495L16.3271 17.5286C15.9669 18.1698 16.4221 18.9694 17.1505 18.9694H19.4345C19.9609 18.9655 20.3845 18.534 20.3805 18.0075V16.9467C20.3766 16.4202 20.8001 15.9888 21.3266 15.9848H21.9876C22.2607 15.9848 22.518 16.1036 22.6962 16.3094L26.1518 20.2836C26.4685 20.6517 26.4685 21.194 26.1518 21.5622L22.6962 25.5404C22.518 25.7462 22.2607 25.865 21.9876 25.865H21.3266C20.8001 25.861 20.3766 25.4295 20.3805 24.9031V23.8422C20.3845 23.3157 19.9609 22.8843 19.4345 22.8803H17.1742C16.4459 22.8803 15.9907 23.6799 16.3509 24.3212L19.7907 30.4527C20.0401 30.9079 20.6141 31.0702 21.0653 30.8209C21.0732 30.8169 21.0772 30.8129 21.0851 30.809L34.3972 22.9832C35.9726 22.057 35.9726 19.7374 34.3972 18.8111Z" fill="white"/>
<path d="M3.58903 41.0611L16.8932 33.2432C17.3484 32.9701 17.5028 32.3843 17.2376 31.9251L13.7146 25.7777C13.4613 25.3264 12.8873 25.1642 12.436 25.4214C12.2856 25.5046 12.1629 25.6312 12.0758 25.7817L10.9319 27.7965C10.6706 28.2557 10.825 28.8415 11.2762 29.1146L12.1787 29.6451C12.634 29.9182 12.7883 30.5001 12.5271 30.9592L12.1946 31.5451C12.06 31.7826 11.8304 31.9528 11.5652 32.0082L6.45491 33.0691C5.98386 33.1641 5.51281 32.8909 5.36635 32.4318L3.7157 27.3888C3.62862 27.1275 3.66029 26.8425 3.79487 26.601L4.12738 26.0152C4.38071 25.5639 4.95072 25.4017 5.40594 25.651C5.4099 25.655 5.41781 25.6589 5.42177 25.6589L6.32428 26.1894C6.77158 26.4506 7.34555 26.3002 7.6068 25.8529C7.61076 25.849 7.61472 25.841 7.61472 25.8371L8.74286 23.846C9.10703 23.2047 8.65578 22.4052 7.92743 22.4012L0.988371 22.3774C0.461905 22.3774 0.034399 22.8089 0.0383573 23.3354V23.3393V38.975C0.0383573 40.8275 2.00964 41.9873 3.58903 41.0611Z" fill="white"/>
</svg>
