<svg width="45" height="44" viewBox="0 0 45 44" fill="none" xmlns="http://www.w3.org/2000/svg">
<path d="M44.468 22.0903C44.468 17.7767 43.1889 13.5599 40.7924 9.9733C38.3959 6.38666 34.9896 3.59122 31.0044 1.94047C27.0191 0.289723 22.6338 -0.142187 18.4031 0.699356C14.1724 1.5409 10.2862 3.6181 7.23603 6.66828C4.18585 9.71847 2.10865 13.6046 1.26711 17.8354C0.425562 22.0661 0.857472 26.4514 2.50822 30.4366C4.15897 34.4219 6.95441 37.8281 10.541 40.2246C14.1277 42.6211 18.3444 43.9003 22.658 43.9003C22.786 43.9003 22.914 43.9003 23.041 43.8913V26.9213H18.356V21.4603H23.042V17.4383C23.042 12.7783 25.888 10.2383 30.042 10.2383C31.4449 10.2318 32.847 10.3029 34.242 10.4513V15.3243H31.382C29.124 15.3243 28.682 16.3973 28.682 17.9743V21.4503H34.092L33.385 26.9113H28.685V43.0573C33.2344 41.748 37.2345 38.9944 40.0816 35.2122C42.9286 31.43 44.4683 26.8243 44.468 22.0903V22.0903Z" fill="white"/>
</svg>
