<svg width="44" height="44" viewBox="0 0 44 44" fill="none" xmlns="http://www.w3.org/2000/svg">
<path d="M43.0931 22.0296C43.0356 20.8336 42.1937 19.8035 40.941 19.5498C40.8889 19.2341 40.843 18.9173 40.7836 18.6029C40.2272 15.6549 39.0398 12.9856 37.2363 10.5893C37.2606 10.5508 37.2833 10.5111 37.3095 10.4739C38.3058 9.06075 37.7569 7.1396 36.1543 6.4853C35.2085 6.09914 34.3236 6.27481 33.5047 6.85732C31.8682 5.62373 30.0836 4.671 28.1428 4.00739C26.9696 3.60622 25.7696 3.32694 24.5434 3.15341C24.2115 1.7977 23.1578 0.956301 21.8452 0.998856C20.6235 1.03846 19.6563 1.87013 19.3386 3.15404C19.1939 3.17515 19.0488 3.19403 18.9045 3.21769C15.7645 3.73263 12.9211 4.94249 10.3788 6.8578C10.3404 6.83349 10.3007 6.81087 10.2636 6.78463C8.97246 5.87083 7.20847 6.24145 6.43109 7.6197C5.8541 8.64265 5.9808 9.64261 6.64653 10.5896C5.41814 12.2183 4.46932 13.9946 3.80542 15.9252C3.39925 17.1063 3.1193 18.3153 2.94185 19.5498C1.65573 19.8708 0.826647 20.8356 0.787623 22.0568C0.745734 23.3678 1.58987 24.4247 2.94239 24.7547C2.96328 24.8994 2.98171 25.0446 3.00542 25.1889C3.52126 28.3292 4.73088 31.1732 6.64713 33.7154C6.61735 33.7612 6.58885 33.808 6.55761 33.8528C5.66202 35.1378 6.04209 36.8957 7.40897 37.6627C8.43294 38.2373 9.43199 38.1156 10.3786 37.4471C11.9998 38.67 13.7676 39.6165 15.6884 40.2792C16.8772 40.6894 18.0941 40.9761 19.3385 41.1507C19.6639 42.4425 20.6204 43.2653 21.8447 43.3067C23.1553 43.3509 24.2024 42.515 24.5436 41.1521C24.6154 41.1386 24.6869 41.1223 24.7592 41.1119C27.9903 40.6445 30.8967 39.4023 33.5045 37.4474C33.5503 37.4771 33.5971 37.5055 33.6418 37.5368C34.8507 38.3808 36.5082 38.0891 37.3406 36.8751C37.9263 36.0211 38.0418 34.8156 37.2361 33.7158C38.4633 32.0862 39.4146 30.311 40.0766 28.3793C40.4814 27.198 40.7652 25.9899 40.9402 24.7548C42.3115 24.413 43.1565 23.3494 43.0931 22.0296V22.0296ZM38.5457 28.5141C37.9956 29.952 37.267 31.2941 36.365 32.5425C36.2928 32.6423 36.1954 32.7333 36.169 32.8605C36.1615 32.8571 36.1542 32.8536 36.1467 32.8503C35.4326 32.5816 34.7251 32.5949 34.0345 32.9222C33.8575 33.0061 33.7488 32.9599 33.6252 32.8339C33.1684 32.3688 32.7049 31.9102 32.2439 31.4493C31.6984 30.9039 31.1544 30.3571 30.607 29.8137C30.3621 29.5706 30.3246 29.5732 30.0732 29.8198C29.9552 29.9355 29.8392 30.0533 29.7224 30.1702C29.4661 30.4266 29.4658 30.6828 29.7215 30.9387C30.6824 31.8998 31.6423 32.8618 32.6057 33.8203C32.7332 33.9471 32.8042 34.0537 32.7107 34.249C32.3803 34.9385 32.3732 35.6472 32.6405 36.3608C32.6435 36.3673 32.6465 36.3738 32.6495 36.3802C32.5135 36.4097 32.4169 36.5148 32.3092 36.5914C31.4102 37.2312 30.4653 37.7887 29.466 38.2599C27.9523 38.9738 26.3684 39.4468 24.7191 39.7115C24.6452 39.7233 24.5654 39.7243 24.512 39.7752C24.2319 39.0128 23.7228 38.4601 22.9642 38.1513C22.7489 38.0636 22.6789 37.9349 22.6809 37.7138C22.6886 36.8696 22.6842 36.0252 22.684 35.1809C22.6839 34.7128 22.6861 34.2448 22.6832 33.7768C22.6807 33.3584 22.6376 33.3157 22.2302 33.3114C22.065 33.3097 21.8998 33.3106 21.7346 33.3111C21.2261 33.3124 21.2016 33.3363 21.1992 33.8326C21.1989 33.906 21.1991 33.9794 21.1991 34.0528C21.199 35.2734 21.197 36.494 21.2013 37.7146C21.2021 37.9182 21.1554 38.0563 20.9433 38.1398C20.1692 38.4443 19.6626 39.0122 19.3634 39.7731C19.294 39.7097 19.1958 39.7197 19.1077 39.7057C17.8984 39.5131 16.7235 39.1923 15.5797 38.7573C14.1398 38.2098 12.801 37.4752 11.5511 36.5757C11.4514 36.5039 11.3609 36.4067 11.2344 36.3797C11.2377 36.3722 11.2413 36.3648 11.2447 36.3573C11.4987 35.6829 11.5125 35.0036 11.2131 34.3472C11.0937 34.0852 11.1493 33.9406 11.3379 33.7552C12.294 32.8155 13.2376 31.8631 14.1855 30.9151C14.2504 30.8501 14.3142 30.7841 14.3786 30.7187C14.5048 30.5902 14.5077 30.466 14.3794 30.3357C14.2376 30.1918 14.0947 30.0491 13.9519 29.9062C13.6956 29.6497 13.4372 29.6515 13.1765 29.9118C12.209 30.8791 11.2404 31.8455 10.2756 32.8156C10.1485 32.9434 10.0407 33.0147 9.84658 32.9218C9.1567 32.5916 8.44825 32.5844 7.7346 32.8514C7.72772 32.8546 7.72081 32.8578 7.71392 32.861C7.68469 32.7247 7.57954 32.6279 7.50277 32.5201C6.86293 31.6214 6.30337 30.6777 5.83524 29.6772C5.12662 28.1626 4.64018 26.5827 4.38334 24.9313C4.3718 24.8571 4.37007 24.7784 4.32206 24.7223C5.07318 24.4457 5.6238 23.9468 5.93171 23.2002C6.02851 22.9655 6.16373 22.8893 6.40856 22.891C7.67508 22.9002 8.94169 22.8954 10.2083 22.8952C10.3092 22.8951 10.4101 22.8953 10.511 22.8887C10.6725 22.8781 10.7689 22.8005 10.7757 22.6333C10.7889 22.3123 10.7894 21.9911 10.7755 21.6701C10.7682 21.5021 10.6693 21.427 10.5087 21.4167C10.4078 21.4103 10.3069 21.4105 10.206 21.4105C8.93019 21.4102 7.65442 21.4072 6.37869 21.4134C6.15653 21.4145 6.02967 21.3426 5.94251 21.1282C5.63445 20.3704 5.08056 19.8647 4.32186 19.5833C4.37678 19.5203 4.37335 19.4305 4.38596 19.3482C4.65932 17.565 5.2117 15.8678 6.00667 14.2531C6.42805 13.3973 6.92232 12.5796 7.48707 11.8069C7.5702 11.6932 7.68122 11.5898 7.71365 11.445C7.72152 11.4485 7.72925 11.4523 7.73713 11.4558C8.41151 11.7099 9.09073 11.7237 9.74725 11.4243C10.0091 11.305 10.1538 11.3604 10.3392 11.549C11.2789 12.5051 12.2313 13.4487 13.1794 14.3966C13.2443 14.4616 13.3103 14.5254 13.3758 14.5898C13.5043 14.716 13.6284 14.7189 13.7587 14.5906C13.9026 14.4488 14.0454 14.3059 14.1883 14.1631C14.4448 13.9068 14.4429 13.6483 14.1826 13.3877C13.2153 12.4201 12.2489 11.4516 11.2789 10.4867C11.151 10.3595 11.0798 10.2518 11.1727 10.0577C11.5029 9.36776 11.51 8.6593 11.243 7.94564C11.2392 7.93745 11.2355 7.92924 11.2317 7.92105C11.3948 7.88172 11.5116 7.75803 11.6421 7.66495C13.8921 6.06111 16.383 5.04633 19.1077 4.6C19.1958 4.58558 19.2935 4.5949 19.3631 4.53198C19.6542 5.2757 20.1438 5.83935 20.8963 6.14374C21.1334 6.2397 21.2051 6.3772 21.2034 6.62088C21.1943 7.88731 21.199 9.15383 21.1993 10.4203C21.1993 10.5212 21.1992 10.6221 21.2058 10.723C21.2164 10.8848 21.2949 10.9803 21.4618 10.987C21.7828 10.9999 22.104 11.0009 22.4249 10.9864C22.5756 10.9795 22.6596 10.8986 22.6746 10.7464C22.6854 10.6365 22.6838 10.5264 22.6839 10.4164C22.6843 9.1407 22.6872 7.86501 22.6809 6.58938C22.6798 6.36704 22.7521 6.24071 22.9664 6.15354C23.7251 5.84501 24.2312 5.28997 24.5123 4.52965C24.5726 4.58929 24.6646 4.58417 24.747 4.59693C26.5474 4.87572 28.2623 5.42919 29.8895 6.24196C30.7263 6.65998 31.5287 7.14323 32.2861 7.69727C32.4002 7.78075 32.5042 7.89193 32.65 7.92352C32.6464 7.93153 32.6426 7.93939 32.639 7.9474C32.3782 8.64023 32.3765 9.33252 32.6885 10.0054C32.7897 10.2237 32.7468 10.3499 32.5882 10.5059C31.83 11.2514 31.0814 12.0066 30.3298 12.7588C30.0642 13.0247 29.7972 13.2891 29.5336 13.557C29.4237 13.6687 29.3757 13.7808 29.5041 13.9125C29.7279 14.1424 29.9537 14.3702 30.185 14.5925C30.2895 14.693 30.3928 14.6925 30.4994 14.5947C30.5669 14.5327 30.632 14.4681 30.6968 14.4033C31.6691 13.4312 32.642 12.4595 33.6127 11.4857C33.7291 11.369 33.8291 11.2841 34.0158 11.3745C34.7123 11.7119 35.4273 11.7239 36.1496 11.4538C36.157 11.4503 36.1644 11.4469 36.1718 11.4435C36.208 11.5972 36.3245 11.7075 36.4123 11.8302C38.0315 14.0934 39.0543 16.6005 39.4973 19.3461C39.5102 19.4259 39.5059 19.5132 39.5636 19.5738C38.7995 19.8724 38.2335 20.3822 37.927 21.1568C37.8494 21.3528 37.7276 21.4139 37.5289 21.4127C36.6388 21.4073 35.7486 21.4101 34.8585 21.4104C34.4089 21.4106 33.9592 21.4064 33.5095 21.4121C33.1608 21.4166 33.1086 21.4703 33.1008 21.8099C33.097 21.975 33.0996 22.1402 33.0997 22.3054C33.1002 22.8866 33.1077 22.8948 33.677 22.8951C34.9525 22.8957 36.2281 22.8973 37.5036 22.893C37.7075 22.8924 37.8452 22.9399 37.9286 23.1516C38.2335 23.926 38.8019 24.4326 39.5633 24.7317C39.4973 24.7997 39.5085 24.8989 39.4945 24.9871C39.3017 26.196 38.9828 27.3715 38.5457 28.5141H38.5457Z" fill="white"/>
<path d="M29.0125 24.03C28.2374 23.6528 27.4654 23.2691 26.6985 22.8755C26.096 22.5663 25.4685 22.3051 24.8935 21.9427C25.1401 21.599 25.3544 21.2369 25.5129 20.8437C25.9954 19.6469 26.0315 18.4038 25.7867 17.1651C25.5342 15.8872 24.7996 14.9435 23.5456 14.4883C22.5418 14.1239 21.5143 14.1197 20.4935 14.4367C19.5 14.7452 18.7369 15.3671 18.377 16.3368C17.652 18.2908 17.7885 20.1838 18.99 21.9432L18.9902 21.9434C18.9237 22.0257 18.8254 22.057 18.7357 22.1019C17.4565 22.7423 16.1792 23.3867 14.8954 24.018C14.7185 24.1051 14.6621 24.2059 14.6645 24.3961C14.6744 25.185 14.666 25.9741 14.6694 26.7631C14.674 27.8761 15.5456 28.7611 16.6571 28.7625C20.1894 28.7672 23.7217 28.7666 27.2539 28.7623C28.3113 28.761 29.2035 27.8708 29.2122 26.8182C29.219 26.0017 29.2096 25.185 29.2175 24.3685C29.2191 24.2 29.169 24.1061 29.0125 24.03V24.03Z" fill="white"/>
</svg>
