<svg width="40" height="39" viewBox="0 0 40 39" fill="none" xmlns="http://www.w3.org/2000/svg">
<path d="M19.9409 37.5169C29.9195 37.5169 38.0088 29.4276 38.0088 19.449C38.0088 9.47037 29.9195 1.3811 19.9409 1.3811C9.96231 1.3811 1.87305 9.47037 1.87305 19.449C1.87305 29.4276 9.96231 37.5169 19.9409 37.5169Z" stroke="white" stroke-width="2" stroke-miterlimit="10"/>
<path d="M31.0197 19.3844C30.9896 18.7579 30.5486 18.2184 29.8925 18.0855C29.8652 17.9202 29.8411 17.7542 29.8101 17.5896C29.5186 16.0455 28.8967 14.6474 27.9521 13.3923C27.9648 13.3721 27.9767 13.3514 27.9904 13.3319C28.5123 12.5917 28.2248 11.5855 27.3854 11.2428C26.89 11.0406 26.4265 11.1326 25.9976 11.4377C25.1405 10.7916 24.2058 10.2925 23.1893 9.94498C22.5748 9.73486 21.9463 9.58858 21.304 9.49769C21.1302 8.78762 20.5783 8.34693 19.8908 8.36922C19.2509 8.38996 18.7443 8.82555 18.5779 9.49802C18.5021 9.50908 18.4261 9.51897 18.3506 9.53136C16.7059 9.80107 15.2167 10.4347 13.8851 11.4379C13.865 11.4252 13.8442 11.4133 13.8248 11.3996C13.1485 10.921 12.2246 11.1151 11.8175 11.837C11.5153 12.3728 11.5816 12.8965 11.9303 13.3925C11.2869 14.2455 10.79 15.1759 10.4422 16.1871C10.2295 16.8057 10.0829 17.4389 9.98992 18.0855C9.3163 18.2536 8.88206 18.759 8.86162 19.3986C8.83968 20.0852 9.28181 20.6388 9.99021 20.8116C10.0011 20.8875 10.0108 20.9635 10.0232 21.0391C10.2934 22.6838 10.927 24.1734 11.9306 25.5049C11.915 25.5289 11.9001 25.5534 11.8837 25.5769C11.4147 26.2499 11.6137 27.1707 12.3296 27.5724C12.866 27.8733 13.3892 27.8096 13.885 27.4595C14.7341 28.1 15.6601 28.5957 16.6661 28.9428C17.2887 29.1577 17.9261 29.3078 18.5779 29.3992C18.7483 30.0759 19.2493 30.5068 19.8906 30.5285C20.577 30.5517 21.1254 30.1139 21.3041 29.4C21.3418 29.3929 21.3792 29.3844 21.4171 29.3789C23.1094 29.1341 24.6317 28.4835 25.9975 27.4596C26.0215 27.4752 26.046 27.4901 26.0695 27.5064C26.7026 27.9485 27.5708 27.7957 28.0067 27.1599C28.3135 26.7126 28.374 26.0812 27.952 25.5051C28.5947 24.6516 29.093 23.7218 29.4397 22.7101C29.6518 22.0914 29.8004 21.4586 29.8921 20.8117C30.6103 20.6327 31.0529 20.0756 31.0197 19.3844V19.3844ZM28.6379 22.7807C28.3498 23.5338 27.9682 24.2368 27.4957 24.8906C27.4579 24.9429 27.4069 24.9905 27.3931 25.0572C27.3892 25.0554 27.3853 25.0536 27.3814 25.0518C27.0074 24.9111 26.6368 24.918 26.2751 25.0895C26.1824 25.1334 26.1255 25.1092 26.0607 25.0433C25.8215 24.7996 25.5787 24.5595 25.3372 24.318C25.0515 24.0324 24.7666 23.746 24.4799 23.4614C24.3516 23.334 24.332 23.3354 24.2003 23.4646C24.1385 23.5252 24.0778 23.5869 24.0166 23.6481C23.8824 23.7824 23.8822 23.9165 24.0161 24.0506C24.5194 24.554 25.0222 25.0578 25.5268 25.5599C25.5935 25.6263 25.6308 25.6821 25.5817 25.7844C25.4087 26.1455 25.405 26.5168 25.545 26.8905C25.5466 26.8939 25.5481 26.8973 25.5497 26.9007C25.4785 26.9161 25.4279 26.9712 25.3715 27.0113C24.9006 27.3464 24.4057 27.6384 23.8823 27.8852C23.0895 28.2591 22.2599 28.5068 21.396 28.6455C21.3573 28.6517 21.3155 28.6522 21.2876 28.6788C21.1408 28.2795 20.8742 27.9901 20.4769 27.8283C20.3641 27.7824 20.3275 27.715 20.3285 27.5991C20.3325 27.157 20.3302 26.7147 20.3301 26.2725C20.3301 26.0274 20.3312 25.7822 20.3297 25.5371C20.3284 25.3179 20.3058 25.2956 20.0925 25.2933C20.0059 25.2924 19.9194 25.2929 19.8329 25.2932C19.5665 25.2938 19.5537 25.3064 19.5525 25.5663C19.5523 25.6048 19.5524 25.6432 19.5524 25.6817C19.5523 26.321 19.5513 26.9603 19.5536 27.5996C19.5539 27.7062 19.5295 27.7786 19.4184 27.8223C19.013 27.9818 18.7476 28.2792 18.5909 28.6777C18.5546 28.6445 18.5032 28.6498 18.457 28.6424C17.8236 28.5416 17.2082 28.3735 16.6092 28.1457C15.855 27.859 15.1538 27.4742 14.4991 27.003C14.4469 26.9655 14.3995 26.9145 14.3332 26.9004C14.335 26.8964 14.3369 26.8926 14.3386 26.8886C14.4717 26.5354 14.4789 26.1797 14.3221 25.8358C14.2596 25.6986 14.2887 25.6229 14.3875 25.5258C14.8882 25.0336 15.3824 24.5348 15.8789 24.0382C15.9129 24.0042 15.9464 23.9697 15.9801 23.9354C16.0462 23.868 16.0477 23.803 15.9805 23.7348C15.9062 23.6594 15.8314 23.5847 15.7566 23.5098C15.6223 23.3755 15.487 23.3764 15.3505 23.5128C14.8437 24.0194 14.3364 24.5256 13.8311 25.0336C13.7645 25.1006 13.7081 25.1379 13.6064 25.0893C13.245 24.9163 12.874 24.9126 12.5002 25.0524C12.4966 25.0541 12.493 25.0557 12.4894 25.0574C12.474 24.986 12.419 24.9353 12.3788 24.8789C12.0436 24.4082 11.7506 23.9139 11.5054 23.3899C11.1342 22.5966 10.8794 21.7691 10.7449 20.9041C10.7389 20.8653 10.738 20.824 10.7128 20.7947C11.1062 20.6498 11.3946 20.3885 11.5559 19.9975C11.6066 19.8745 11.6774 19.8346 11.8057 19.8355C12.469 19.8403 13.1324 19.8378 13.7958 19.8377C13.8487 19.8377 13.9015 19.8377 13.9544 19.8343C14.0389 19.8288 14.0894 19.7881 14.093 19.7005C14.0999 19.5324 14.1002 19.3642 14.0929 19.196C14.0891 19.1081 14.0373 19.0687 13.9531 19.0634C13.9003 19.06 13.8475 19.0601 13.7946 19.0601C13.1264 19.0599 12.4582 19.0583 11.79 19.0616C11.6737 19.0622 11.6072 19.0245 11.5616 18.9122C11.4002 18.5153 11.1101 18.2504 10.7127 18.1031C10.7415 18.07 10.7397 18.023 10.7463 17.9799C10.8895 17.0459 11.1788 16.157 11.5952 15.3113C11.8159 14.863 12.0747 14.4348 12.3705 14.0301C12.4141 13.9705 12.4722 13.9164 12.4892 13.8405C12.4933 13.8424 12.4974 13.8443 12.5015 13.8462C12.8547 13.9793 13.2105 13.9865 13.5543 13.8297C13.6915 13.7672 13.7673 13.7962 13.8644 13.895C14.3566 14.3958 14.8554 14.89 15.352 15.3865C15.386 15.4205 15.4205 15.4539 15.4548 15.4876C15.5221 15.5538 15.5872 15.5553 15.6554 15.4881C15.7308 15.4138 15.8055 15.3389 15.8804 15.2642C16.0147 15.1299 16.0138 14.9946 15.8774 14.8581C15.3708 14.3513 14.8646 13.844 14.3565 13.3386C14.2896 13.272 14.2523 13.2156 14.301 13.1139C14.4739 12.7525 14.4776 12.3815 14.3378 12.0077C14.3358 12.0034 14.3338 11.9991 14.3318 11.9948C14.4173 11.9742 14.4784 11.9094 14.5468 11.8607C15.7253 11.0206 17.0299 10.4891 18.457 10.2554C18.5031 10.2478 18.5543 10.2527 18.5908 10.2197C18.7432 10.6093 18.9997 10.9045 19.3938 11.0639C19.518 11.1142 19.5556 11.1862 19.5546 11.3138C19.5499 11.9771 19.5524 12.6405 19.5525 13.3038C19.5525 13.3567 19.5524 13.4095 19.5559 13.4624C19.5614 13.5471 19.6026 13.5971 19.69 13.6006C19.8581 13.6074 20.0263 13.6079 20.1944 13.6003C20.2734 13.5967 20.3173 13.5543 20.3252 13.4746C20.3309 13.4171 20.33 13.3594 20.3301 13.3018C20.3303 12.6336 20.3318 11.9655 20.3285 11.2973C20.3279 11.1809 20.3658 11.1147 20.478 11.069C20.8754 10.9075 21.1405 10.6167 21.2877 10.2185C21.3193 10.2498 21.3675 10.2471 21.4107 10.2538C22.3537 10.3998 23.2519 10.6897 24.1041 11.1154C24.5424 11.3343 24.9626 11.5874 25.3593 11.8776C25.4191 11.9213 25.4736 11.9796 25.5499 11.9961C25.5481 12.0003 25.5461 12.0044 25.5442 12.0086C25.4076 12.3715 25.4067 12.7341 25.5701 13.0865C25.6231 13.2009 25.6007 13.2669 25.5176 13.3486C25.1205 13.7391 24.7284 14.1347 24.3347 14.5286C24.1956 14.6679 24.0557 14.8064 23.9177 14.9467C23.8602 15.0052 23.835 15.0639 23.9022 15.1329C24.0195 15.2533 24.1377 15.3727 24.2589 15.4891C24.3136 15.5417 24.3677 15.5414 24.4235 15.4902C24.4589 15.4577 24.493 15.4239 24.5269 15.39C25.0362 14.8808 25.5458 14.3719 26.0542 13.8618C26.1152 13.8007 26.1675 13.7563 26.2653 13.8036C26.6301 13.9803 27.0046 13.9866 27.3829 13.8451C27.3868 13.8433 27.3907 13.8415 27.3945 13.8397C27.4135 13.9202 27.4745 13.978 27.5205 14.0423C28.3686 15.2276 28.9043 16.5408 29.1363 17.9788C29.1431 18.0206 29.1408 18.0663 29.171 18.0981C28.7708 18.2545 28.4744 18.5215 28.3139 18.9272C28.2732 19.0298 28.2094 19.0619 28.1054 19.0613C27.6391 19.0584 27.1729 19.0599 26.7067 19.0601C26.4712 19.0601 26.2356 19.0579 26.0002 19.0609C25.8175 19.0633 25.7902 19.0914 25.7861 19.2693C25.7841 19.3557 25.7855 19.4423 25.7855 19.5288C25.7857 19.8332 25.7897 19.8375 26.0879 19.8377C26.7559 19.838 27.424 19.8388 28.0921 19.8366C28.1989 19.8362 28.271 19.8611 28.3147 19.972C28.4744 20.3776 28.7721 20.643 29.1709 20.7996C29.1363 20.8352 29.1422 20.8872 29.1348 20.9333C29.0339 21.5666 28.8669 22.1822 28.6379 22.7807H28.6379Z" fill="white"/>
<path d="M23.6448 20.4323C23.2388 20.2347 22.8344 20.0337 22.4328 19.8276C22.1172 19.6656 21.7885 19.5289 21.4874 19.339C21.6165 19.159 21.7288 18.9694 21.8118 18.7634C22.0645 18.1365 22.0834 17.4855 21.9552 16.8367C21.8229 16.1674 21.4382 15.6731 20.7814 15.4347C20.2556 15.2438 19.7175 15.2416 19.1828 15.4077C18.6624 15.5692 18.2627 15.895 18.0743 16.4029C17.6946 17.4263 17.7661 18.4178 18.3954 19.3393L18.3954 19.3394C18.3606 19.3825 18.3091 19.3989 18.2622 19.4224C17.5921 19.7578 16.9231 20.0953 16.2507 20.426C16.1581 20.4716 16.1286 20.5244 16.1298 20.624C16.135 21.0372 16.1306 21.4505 16.1323 21.8638C16.1348 22.4467 16.5913 22.9102 17.1735 22.911C19.0235 22.9134 20.8736 22.9131 22.7237 22.9109C23.2775 22.9102 23.7448 22.4439 23.7494 21.8926C23.7529 21.465 23.748 21.0372 23.7521 20.6096C23.753 20.5213 23.7267 20.4721 23.6448 20.4322V20.4323Z" fill="white"/>
</svg>
