<svg width="35" height="36" viewBox="0 0 35 36" fill="none" xmlns="http://www.w3.org/2000/svg">
<path d="M8.02758 24.6234C8.211 24.7299 8.37309 24.8592 8.51322 24.9937C8.67455 25.1486 8.79752 25.302 8.87939 25.4158C8.92004 25.4723 8.94977 25.5179 8.9683 25.5476C8.97755 25.5624 8.98395 25.5731 8.98746 25.5791L8.98922 25.5821L8.98916 25.5821L8.99493 25.5921C9.77092 26.9327 10.8461 27.4425 11.8673 27.5267C12.8461 27.6075 13.7268 27.2954 14.1884 27.0978C14.3784 27.0165 14.5131 26.8431 14.545 26.6388C14.6821 25.7608 15.0293 25.2024 15.3224 24.9505C15.5029 24.7953 15.5747 24.5481 15.5052 24.3203C15.4357 24.0926 15.2381 23.9275 15.0017 23.8996C13.3462 23.7041 11.7543 23.3144 10.5762 22.3453C9.43039 21.4027 8.58374 19.8323 8.58374 17.0586C8.58374 15.5587 9.10708 14.355 9.95756 13.4223C10.1106 13.2545 10.1557 13.0147 10.0742 12.8027C9.96254 12.5123 9.55779 11.3194 10.1282 9.60898C10.2349 9.61526 10.3745 9.63184 10.5491 9.66873C11.1273 9.79092 12.0905 10.1365 13.4978 11.0697C13.6434 11.1663 13.8239 11.1946 13.9921 11.1472C15.1405 10.8236 16.4325 10.6187 17.6559 10.6187C18.847 10.6187 20.1394 10.8233 21.3224 11.1482C21.4906 11.1944 21.6705 11.1652 21.8154 11.0681C23.2067 10.1355 24.1615 9.7905 24.735 9.66858C24.9075 9.63193 25.0457 9.61538 25.1515 9.60905C25.7225 11.3196 25.3181 12.5125 25.2065 12.8026C25.125 13.0145 25.17 13.2542 25.3229 13.4221C26.1727 14.355 26.6965 15.5588 26.6965 17.0586C26.6965 19.8323 25.8498 21.4027 24.704 22.3453C23.5259 23.3144 21.934 23.7041 20.2785 23.8996C20.0406 23.9277 19.8421 24.0947 19.7738 24.3244L32.7446 17.8542L33.3446 17.8564C33.3446 17.856 33.3446 17.8556 33.3446 17.8553C33.3758 9.16581 26.3103 2.13495 17.6559 2.13495C8.9683 2.13495 1.93609 9.16707 1.93609 17.8542C1.93609 24.7896 6.42184 30.7085 12.6615 32.778C12.6922 32.7882 12.7237 32.7958 12.7557 32.8009C13.2703 32.8832 13.7298 32.7809 14.0657 32.4896C14.3898 32.2086 14.5211 31.8175 14.5211 31.4735V28.8722C14.5211 28.6907 14.4389 28.519 14.2976 28.4051C14.1563 28.2912 13.971 28.2474 13.7936 28.2859C11.8374 28.7114 10.7431 28.2396 10.1438 27.7552C9.83237 27.5035 9.62992 27.2284 9.50625 27.0183C9.44461 26.9136 9.40346 26.8266 9.37887 26.7692C9.3666 26.7406 9.35856 26.7197 9.35422 26.7079L9.35058 26.6978L9.35112 26.6994L9.3515 26.7006L9.35172 26.7013C9.35184 26.7017 9.35196 26.702 8.77978 26.8826M8.02758 24.6234C8.05375 24.6479 8.08036 24.6735 8.10734 24.7002C8.50344 25.0919 8.97164 25.7143 9.33947 26.6664C9.34344 26.6767 9.34712 26.6871 9.35051 26.6975C9.351 26.699 9.35148 26.7005 9.35196 26.702L8.77978 26.8826M8.02758 24.6234C7.8156 24.5003 7.57515 24.4076 7.30724 24.3725L7.09638 24.6789M8.02758 24.6234L13.3211 28.9809C9.6095 29.5114 8.77978 26.8826 8.77978 26.8826M8.77978 26.8826C8.10603 25.1386 7.09638 24.6789 7.09638 24.6789M7.09638 24.6789C7.1581 24.5433 7.20452 24.4415 7.23944 24.3649C7.22561 24.3636 7.21172 24.3624 7.19775 24.3615C7.19165 24.3615 7.18321 24.3616 7.17288 24.3619C7.1454 24.3626 7.10732 24.3644 7.06579 24.3686C7.02325 24.3729 6.98439 24.3789 6.95327 24.3862C6.93067 24.3914 6.92098 24.3954 6.92094 24.3953C6.92092 24.3952 6.9237 24.394 6.92877 24.3913C6.93984 24.3852 7.0206 24.3398 7.07411 24.2244C7.13712 24.0884 7.11292 23.9656 7.09007 23.9094C7.08364 23.8937 7.07859 23.8857 7.07867 23.8857C7.07879 23.8856 7.09084 23.9039 7.12819 23.9409C7.14825 23.9607 7.17312 23.9835 7.20359 24.0093L7.21874 23.7616M7.09638 24.6789C5.71885 23.731 7.21874 23.7616 7.21874 23.7616M7.21874 23.7616C7.21667 23.8632 7.21496 23.9476 7.21354 24.0177M7.21874 23.7616C8.71817 23.8533 9.51421 25.2915 9.51421 25.2915C10.8606 27.6175 13.095 26.9133 13.9522 26.5463C14.0482 25.9312 14.2409 25.425 14.477 25.0424C14.6057 25.0601 14.7338 25.0763 14.8609 25.0913L14.9313 24.4955L14.5402 24.0404C14.4212 24.1427 14.3072 24.2613 14.1999 24.395C11.066 23.8971 7.98374 22.4538 7.98374 17.0586C7.98374 15.4058 8.56523 14.0587 9.51421 13.0181C9.36134 12.6205 8.8715 11.1206 9.69765 9.03973C9.69765 9.03973 10.9218 8.64167 13.8294 10.5697L7.21354 24.0177M7.21354 24.0177C7.26264 24.0587 7.32539 24.1069 7.40471 24.1625L7.21354 24.0177ZM17.6559 1.19229C26.8421 1.19229 34.3177 8.66608 34.3177 17.8852C34.3177 27.0722 26.8428 34.5471 17.6559 34.5471C8.43671 34.5471 0.962915 27.0715 0.962915 17.8852C0.962915 8.66677 8.4374 1.19229 17.6559 1.19229Z" fill="white" stroke="white" stroke-width="1.2" stroke-linejoin="round"/>
</svg>
