<svg width="44" height="45" viewBox="0 0 44 45" fill="none" xmlns="http://www.w3.org/2000/svg">
<path d="M26.0469 22.7626C26.0469 23.5881 25.8021 24.3951 25.3435 25.0815C24.8849 25.7679 24.2331 26.3029 23.4704 26.6188C22.7078 26.9348 21.8686 27.0175 21.0589 26.8565C20.2493 26.6955 19.5056 26.2981 18.9218 25.7144C18.338 25.1308 17.9404 24.3872 17.7792 23.5775C17.618 22.7679 17.7006 21.9287 18.0163 21.166C18.3321 20.4033 18.8669 19.7513 19.5532 19.2926C20.2395 18.8338 21.0464 18.5888 21.8719 18.5886C22.4201 18.5885 22.963 18.6964 23.4695 18.9061C23.976 19.1158 24.4363 19.4232 24.824 19.8108C25.2117 20.1984 25.5192 20.6586 25.7291 21.1651C25.9389 21.6715 26.0469 22.2144 26.0469 22.7626V22.7626Z" fill="white"/>
<path d="M31.6349 15.3776C31.4266 14.8374 31.1074 14.3468 30.698 13.9374C30.2886 13.528 29.7981 13.2089 29.2579 13.0006C28.5133 12.7248 27.7268 12.579 26.9329 12.5696C25.6119 12.5096 25.2159 12.4966 21.8729 12.4966C18.5299 12.4966 18.1329 12.5096 16.8129 12.5696C16.0189 12.579 15.2325 12.7248 14.4879 13.0006C13.9478 13.209 13.4572 13.5282 13.0479 13.9376C12.6385 14.3469 12.3193 14.8375 12.1109 15.3776C11.8351 16.1222 11.6893 16.9086 11.6799 17.7026C11.6199 19.0226 11.6069 19.4186 11.6069 22.7626C11.6069 26.1066 11.6199 26.5026 11.6799 27.8236C11.6893 28.6175 11.8351 29.404 12.1109 30.1486C12.3192 30.6888 12.6383 31.1793 13.0477 31.5887C13.4571 31.9981 13.9477 32.3172 14.4879 32.5256C15.2324 32.8016 16.0189 32.9474 16.8129 32.9566C18.1329 33.0166 18.5289 33.0296 21.8729 33.0296C25.2169 33.0296 25.6129 33.0166 26.9329 32.9566C27.7269 32.9474 28.5133 32.8016 29.2579 32.5256C29.7981 32.3172 30.2886 31.9981 30.698 31.5887C31.1074 31.1793 31.4266 30.6888 31.6349 30.1486C31.9106 29.404 32.0564 28.6175 32.0659 27.8236C32.1259 26.5026 32.1389 26.1066 32.1389 22.7626C32.1389 19.4186 32.1259 19.0226 32.0659 17.7026C32.0567 16.9086 31.9109 16.1221 31.6349 15.3776ZM21.8729 29.1936C20.6009 29.1936 19.3576 28.8164 18.3 28.1098C17.2424 27.4031 16.4182 26.3987 15.9314 25.2236C15.4447 24.0485 15.3173 22.7554 15.5654 21.5079C15.8136 20.2605 16.4261 19.1146 17.3255 18.2152C18.2249 17.3158 19.3708 16.7033 20.6183 16.4551C21.8657 16.207 23.1588 16.3344 24.3339 16.8211C25.509 17.3079 26.5134 18.1321 27.2201 19.1897C27.9267 20.2473 28.3039 21.4906 28.3039 22.7626C28.304 23.6073 28.1377 24.4437 27.8145 25.2242C27.4914 26.0046 27.0176 26.7137 26.4203 27.311C25.823 27.9083 25.1139 28.382 24.3335 28.7052C23.553 29.0284 22.7166 29.1947 21.8719 29.1946L21.8729 29.1936ZM28.5579 17.5806C28.2612 17.5806 27.9712 17.4926 27.7245 17.3278C27.4778 17.163 27.2856 16.9287 27.1721 16.6546C27.0585 16.3805 27.0288 16.0789 27.0867 15.7879C27.1446 15.497 27.2874 15.2297 27.4972 15.0199C27.707 14.8101 27.9743 14.6673 28.2652 14.6094C28.5562 14.5515 28.8578 14.5812 29.1319 14.6948C29.406 14.8083 29.6403 15.0005 29.8051 15.2472C29.9699 15.4939 30.0579 15.7839 30.0579 16.0806C30.058 16.2777 30.0193 16.473 29.9439 16.6551C29.8685 16.8373 29.758 17.0028 29.6185 17.1422C29.4791 17.2816 29.3136 17.3922 29.1314 17.4676C28.9493 17.543 28.754 17.5817 28.5569 17.5816L28.5579 17.5806Z" fill="white"/>
<path d="M21.8729 0.95459C17.5594 0.954392 13.3428 2.2333 9.75617 4.62958C6.16957 7.02587 3.3741 10.4319 1.72327 14.417C0.0724494 18.402 -0.359584 22.7871 0.481808 27.0177C1.3232 31.2483 3.40023 35.1344 6.45023 38.1845C9.50023 41.2347 13.3862 43.3119 17.6168 44.1535C21.8473 44.995 26.2325 44.5632 30.2176 42.9126C34.2027 41.2619 37.6089 38.4666 40.0053 34.8801C42.4018 31.2936 43.6809 27.077 43.6809 22.7636C43.6803 16.9798 41.3826 11.4331 37.2929 7.34324C33.2033 3.2534 27.6566 0.955385 21.8729 0.95459V0.95459ZM34.3199 27.9266C34.2992 28.9655 34.1024 29.9935 33.7379 30.9666C33.4162 31.7985 32.9242 32.5541 32.2934 33.1847C31.6626 33.8153 30.9069 34.3072 30.0749 34.6286C29.1017 34.993 28.0738 35.1898 27.0349 35.2106C25.6999 35.2716 25.2729 35.2866 21.8719 35.2866C18.4709 35.2866 18.0439 35.2716 16.7089 35.2106C15.6699 35.1898 14.642 34.993 13.6689 34.6286C12.8368 34.3072 12.0812 33.8153 11.4504 33.1847C10.8196 32.5541 10.3275 31.7985 10.0059 30.9666C9.64132 29.9935 9.44453 28.9655 9.42388 27.9266C9.36188 26.5906 9.34788 26.1646 9.34788 22.7636C9.34788 19.3626 9.36188 18.9356 9.42388 17.6006C9.44459 16.5616 9.64138 15.5337 10.0059 14.5606C10.328 13.7289 10.8201 12.9736 11.4509 12.343C12.0816 11.7124 12.8371 11.2205 13.6689 10.8986C14.6421 10.5343 15.6699 10.3375 16.7089 10.3166C18.0439 10.2556 18.4709 10.2406 21.8719 10.2406C25.2729 10.2406 25.6999 10.2556 27.0349 10.3166C28.0737 10.3372 29.1016 10.5336 30.0749 10.8976C30.9069 11.2194 31.6624 11.7115 32.2932 12.3422C32.924 12.973 33.4161 13.7286 33.7379 14.5606C34.1024 15.5337 34.2992 16.5616 34.3199 17.6006C34.3809 18.9356 34.3949 19.3626 34.3949 22.7636C34.3949 26.1646 34.3809 26.5906 34.3199 27.9266Z" fill="white"/>
</svg>
