<svg width="44" height="44" viewBox="0 0 44 44" fill="none" xmlns="http://www.w3.org/2000/svg">
<path d="M21.9539 0.282227C17.6405 0.282029 13.4238 1.56094 9.83723 3.95722C6.25062 6.3535 3.45515 9.75953 1.80433 13.7446C0.153504 17.7296 -0.27853 22.1147 0.562863 26.3453C1.40425 30.5759 3.48128 34.462 6.53129 37.5122C9.58129 40.5623 13.4673 42.6395 17.6978 43.4811C21.9284 44.3227 26.3135 43.8909 30.2986 42.2402C34.2838 40.5896 37.6899 37.7943 40.0864 34.2078C42.4828 30.6213 43.7619 26.4047 43.7619 22.0912C43.7614 16.3075 41.4636 10.7607 37.374 6.67087C33.2843 2.58104 27.7377 0.283022 21.9539 0.282227V0.282227ZM15.6159 33.2502H10.3049V17.2712H15.6159V33.2502ZM12.9609 15.0892H12.9259C12.5462 15.112 12.1659 15.0562 11.8087 14.9254C11.4515 14.7947 11.125 14.5916 10.8498 14.3291C10.5745 14.0665 10.3564 13.75 10.2089 13.3994C10.0614 13.0487 9.98775 12.6715 9.99257 12.2911C9.9974 11.9107 10.0806 11.5354 10.2369 11.1886C10.3932 10.8418 10.6194 10.531 10.9012 10.2755C11.183 10.02 11.5145 9.82532 11.8749 9.70364C12.2353 9.58195 12.6169 9.53585 12.9959 9.56823C13.3768 9.54084 13.7592 9.59252 14.1191 9.72002C14.479 9.84752 14.8087 10.0481 15.0874 10.3091C15.3661 10.5701 15.5878 10.886 15.7385 11.2368C15.8893 11.5876 15.9659 11.9658 15.9635 12.3476C15.961 12.7295 15.8797 13.1067 15.7245 13.4556C15.5693 13.8044 15.3436 14.1174 15.0616 14.3749C14.7796 14.6324 14.4475 14.8288 14.0859 14.9517C13.7244 15.0746 13.3414 15.1214 12.9609 15.0892V15.0892ZM34.7679 33.2502H29.4569V24.7022C29.4569 22.5542 28.6879 21.0882 26.7659 21.0882C26.1676 21.0928 25.5852 21.2818 25.0983 21.6296C24.6113 21.9773 24.2435 22.4668 24.0449 23.0312C23.9083 23.4504 23.849 23.8909 23.8699 24.3312V33.2552H18.5559C18.5559 33.2552 18.6259 18.7752 18.5559 17.2762H23.8669V19.5392C24.3476 18.7041 25.048 18.0166 25.892 17.5516C26.7359 17.0865 27.6911 16.8616 28.6539 16.9012C32.1479 16.9012 34.7689 19.1852 34.7689 24.0932L34.7679 33.2502Z" fill="white"/>
</svg>
