<svg width="37" height="35" viewBox="0 0 37 35" fill="none" xmlns="http://www.w3.org/2000/svg">
<path d="M34.9436 15.5652L34.2371 15.0565L35.3675 14.025L34.4914 13.3468L35.6218 12.4848L34.8729 11.9196L36.074 6.15446L34.2794 0.799081L34.2795 0.799072H34.2794L34.2794 0.799081L22.8198 5.08056H13.296L1.82217 0.799072L0.041748 6.15446L1.24282 11.9196L0.479793 12.4848L1.61022 13.3468L0.748263 14.025L1.87869 15.0565L1.17217 15.5652L2.79716 17.4728L0.33849 25.1314L2.62759 32.9455L10.6395 30.7412L12.1938 32.0129L15.3449 34.2031H20.7568L23.9219 32.0129L25.4763 30.7412L33.4882 32.9455L35.7914 25.1314L33.3045 17.4728L34.9436 15.5652ZM10.0758 15.1054L2.9312 17.1954L1.49104 15.5047L2.20156 14.9931L1.08583 13.975L1.94464 13.2993L0.838663 12.4559L1.5111 11.9578L0.320886 6.24439L1.99743 1.20155L15.0552 10.893L10.0758 15.1054V15.1054ZM11.1764 21.8391L13.9883 20.5532L15.1612 23.0119L11.1764 21.8391ZM20.7073 31.1086H15.3802L15.0552 31.4194L15.4084 28.2966L16.0867 27.8303H20.0008L20.679 28.2966L21.0606 31.4194L20.7073 31.1086ZM20.9405 23.0119L22.1133 20.5532L24.9393 21.8391L20.9405 23.0119ZM26.0092 15.1468L20.9948 10.9049L34.1446 1.14515L35.8465 6.22386L34.6481 11.9763L35.3124 12.4777L34.1962 13.3289L35.0752 14.0094L33.9526 15.0338L34.6676 15.5486L33.2042 17.2517L26.0092 15.1468H26.0092Z" fill="white"/>
</svg>
