<svg width="39" height="39" viewBox="0 0 39 39" fill="none" xmlns="http://www.w3.org/2000/svg">
<path d="M19.1397 37.2843C29.1183 37.2843 37.2075 29.1951 37.2075 19.2164C37.2075 9.23783 29.1183 1.14856 19.1397 1.14856C9.16104 1.14856 1.07178 9.23783 1.07178 19.2164C1.07178 29.1951 9.16104 37.2843 19.1397 37.2843Z" stroke="white" stroke-width="2" stroke-miterlimit="10"/>
<path d="M27.4968 18.2489L27.1437 17.9947L27.7087 17.4792L27.2708 17.1402L27.8358 16.7094L27.4615 16.427L28.0618 13.5457L27.1649 10.8693L27.1649 10.8693H27.1649L27.1649 10.8693L21.4377 13.009H16.678L10.9438 10.8693L10.054 13.5457L10.6542 16.427L10.2729 16.7094L10.8378 17.1402L10.407 17.4792L10.972 17.9947L10.6189 18.2489L11.431 19.2023L10.2023 23.0298L11.3463 26.935L15.3504 25.8334L16.1272 26.469L17.702 27.5636H20.4067L21.9885 26.469L22.7653 25.8334L26.7694 26.935L27.9205 23.0298L26.6776 19.2023L27.4968 18.2489ZM15.0687 18.0191L11.498 19.0636L10.7783 18.2187L11.1334 17.963L10.5758 17.4542L11.005 17.1165L10.4522 16.695L10.7883 16.446L10.1935 13.5907L11.0313 11.0704L17.5572 15.9139L15.0687 18.0191V18.0191ZM15.6187 21.3844L17.024 20.7418L17.6102 21.9705L15.6187 21.3844V21.3844ZM20.382 26.017H17.7196L17.5572 26.1724L17.7338 24.6117L18.0727 24.3786H20.0289L20.3678 24.6117L20.5585 26.1724L20.382 26.017ZM20.4985 21.9705L21.0846 20.7418L22.497 21.3844L20.4985 21.9705V21.9705ZM23.0317 18.0398L20.5257 15.9198L27.0975 11.0422L27.948 13.5804L27.3491 16.4553L27.6812 16.7059L27.1233 17.1313L27.5626 17.4714L27.0015 17.9833L27.3589 18.2406L26.6275 19.0918L23.0317 18.0398H23.0317Z" fill="white"/>
</svg>
