<svg width="18" height="44" viewBox="0 0 18 44" fill="none" xmlns="http://www.w3.org/2000/svg">
<g clip-path="url(#clip0_124_2)">
<path d="M0.173014 14.9847C0.173014 17.2147 0.164676 19.4448 0.174764 21.6747C0.19521 26.1951 3.59193 29.666 8.06001 29.7203C9.66969 29.7399 11.2781 29.7948 12.8367 29.1968C15.8061 28.0573 17.9034 25.1618 17.9258 21.9471C17.9578 17.3494 17.9568 12.7511 17.929 8.15337C17.9029 3.852 14.5751 0.401255 10.3181 0.252883C8.48154 0.188871 6.62137 0.0993283 4.89343 0.932153C1.97497 2.33877 0.318674 4.65918 0.195479 7.95052C0.107834 10.2921 0.178476 12.6398 0.178476 14.9847L0.173014 14.9847V14.9847ZM16.4336 15.0266C16.4336 16.1526 16.4339 17.2786 16.4335 18.4045C16.4331 19.5305 16.4431 20.6566 16.429 21.7824C16.391 24.8281 14.3583 27.3833 11.3927 27.9493C10.3133 28.1552 9.179 28.1158 8.07033 28.1074C4.53501 28.0808 1.77644 25.3781 1.73197 21.8026C1.67567 17.2765 1.68662 12.7489 1.72757 8.22243C1.75601 5.07969 3.80846 2.58841 6.87098 1.98986C7.86048 1.79647 8.9044 1.855 9.92342 1.8551C13.6842 1.85546 16.419 4.61634 16.4321 8.40872C16.4397 10.6147 16.4335 12.8207 16.4336 15.0266H16.4336Z" fill="white"/>
<path d="M9.8488 40.6603C9.8488 39.6301 9.84877 38.6962 9.84881 37.7624C9.84886 36.4753 9.8564 35.1881 9.84604 33.901C9.84053 33.2161 9.52846 32.8211 9.02671 32.864C8.41329 32.9165 8.26387 33.36 8.26313 33.8911C8.2604 35.8447 8.26207 37.7984 8.26208 39.7521C8.26209 40.0036 8.26208 40.2551 8.26208 40.689C8.00273 40.4464 7.84709 40.3098 7.70142 40.163C7.10586 39.5631 6.52706 38.9453 5.91447 38.3638C5.56046 38.0278 5.12861 37.9667 4.75709 38.3378C4.43156 38.6629 4.44859 39.0689 4.75813 39.3883C5.9984 40.668 7.24906 41.9378 8.51697 43.1894C8.87969 43.5475 9.29453 43.5099 9.66347 43.136C10.867 41.9162 12.074 40.7 13.2768 39.4794C13.6335 39.1175 13.7136 38.6977 13.3443 38.3225C12.9495 37.9213 12.5277 38.0261 12.1476 38.4018C11.4171 39.1236 10.6828 39.8414 9.8488 40.6603V40.6603Z" fill="white"/>
<path d="M8.26188 9.93999C8.26247 10.7885 8.25438 11.6372 8.26502 12.4855C8.27358 13.1688 8.58402 13.5838 9.07357 13.5369C9.66663 13.4802 9.84913 13.0625 9.8486 12.5176C9.84694 10.7976 9.85413 9.07754 9.84582 7.35759C9.8425 6.66944 9.53795 6.27758 9.03371 6.31467C8.37378 6.36322 8.25997 6.84322 8.2609 7.39439C8.26234 8.24293 8.26128 9.09146 8.26188 9.93999V9.93999Z" fill="white"/>
</g>
<defs>
<clipPath id="clip0_124_2">
<rect width="17.7983" height="43.2243" fill="white" transform="matrix(-1 0 0 1 17.9498 0.213867)"/>
</clipPath>
</defs>
</svg>
