<svg width="45" height="45" viewBox="0 0 45 45" fill="none" xmlns="http://www.w3.org/2000/svg">
<path d="M27.224 29.6689C26.247 30.6459 24.154 30.9949 22.662 30.9949C21.17 30.9949 19.077 30.6459 18.1 29.6689C17.9896 29.5585 17.8398 29.4964 17.6835 29.4964C17.5273 29.4964 17.3775 29.5585 17.267 29.6689C17.1566 29.7794 17.0945 29.9292 17.0945 30.0854C17.0945 30.2416 17.1566 30.3915 17.267 30.5019C18.815 32.0499 21.79 32.1729 22.667 32.1729C23.544 32.1729 26.51 32.0509 28.067 30.5019C28.1749 30.3901 28.2351 30.2408 28.2351 30.0854C28.2351 29.9301 28.1749 29.7807 28.067 29.6689C28.0123 29.6125 27.9468 29.5676 27.8744 29.5369C27.802 29.5063 27.7242 29.4905 27.6455 29.4905C27.5669 29.4905 27.4891 29.5063 27.4167 29.5369C27.3443 29.5676 27.2788 29.6125 27.224 29.6689V29.6689Z" fill="white"/>
<path d="M20.023 24.501C20.023 24.0515 19.8897 23.612 19.6399 23.2382C19.3902 22.8644 19.0352 22.5731 18.6198 22.4011C18.2045 22.229 17.7475 22.184 17.3066 22.2717C16.8656 22.3594 16.4606 22.5759 16.1427 22.8938C15.8249 23.2117 15.6084 23.6167 15.5207 24.0576C15.433 24.4985 15.478 24.9555 15.65 25.3709C15.8221 25.7862 16.1134 26.1412 16.4872 26.391C16.861 26.6407 17.3004 26.774 17.75 26.774C18.3525 26.773 18.93 26.5332 19.3561 26.1071C19.7821 25.6811 20.0219 25.1036 20.023 24.501V24.501Z" fill="white"/>
<path d="M22.658 0.419922C18.3446 0.419724 14.1279 1.69863 10.5413 4.09491C6.95473 6.4912 4.15926 9.89723 2.50843 13.8823C0.857606 17.8673 0.425572 22.2524 1.26696 26.483C2.10836 30.7136 4.18538 34.5997 7.23539 37.6499C10.2854 40.7 14.1714 42.7772 18.4019 43.6188C22.6325 44.4604 27.0176 44.0285 31.0027 42.3779C34.9879 40.7273 38.394 37.9319 40.7905 34.3455C43.1869 30.759 44.466 26.5424 44.466 22.2289C44.4655 16.4452 42.1677 10.8984 38.0781 6.80857C33.9884 2.71873 28.4418 0.420717 22.658 0.419922V0.419922ZM35.311 25.1379C35.3598 25.4539 35.3845 25.7732 35.385 26.0929C35.385 30.9869 29.685 34.9519 22.662 34.9519C15.639 34.9519 9.93903 30.9869 9.93903 26.0929C9.93936 25.7702 9.96409 25.4479 10.013 25.1289C9.59081 24.9391 9.21517 24.6593 8.91237 24.3091C8.60957 23.9589 8.38693 23.5468 8.26003 23.1016C8.13312 22.6564 8.10501 22.1889 8.17766 21.7317C8.25032 21.2745 8.42198 20.8387 8.68064 20.4547C8.93931 20.0708 9.27873 19.748 9.67516 19.509C10.0716 19.2699 10.5155 19.1203 10.9757 19.0707C11.436 19.0211 11.9016 19.0727 12.3398 19.2218C12.7781 19.3709 13.1785 19.6139 13.513 19.9339C16.068 18.1964 19.0813 17.2566 22.171 17.2339C22.171 17.1899 23.759 9.62692 23.759 9.62692C23.774 9.55421 23.8033 9.48521 23.8452 9.42392C23.8871 9.36263 23.9407 9.31029 24.003 9.26992C24.0657 9.22921 24.1357 9.20128 24.2092 9.18772C24.2826 9.17416 24.358 9.17525 24.431 9.19092L29.715 10.3199C29.9593 9.82378 30.3761 9.43374 30.8873 9.22293C31.3986 9.01212 31.9691 8.995 32.4921 9.17479C33.0151 9.35457 33.4545 9.71892 33.728 10.1995C34.0016 10.6801 34.0904 11.244 33.9779 11.7855C33.8655 12.3269 33.5594 12.8087 33.1171 13.1406C32.6747 13.4725 32.1265 13.6317 31.5752 13.5884C31.0239 13.545 30.5074 13.302 30.1224 12.9051C29.7374 12.5081 29.5105 11.9843 29.484 11.4319L24.749 10.4259L23.301 17.2439C26.3388 17.2942 29.2955 18.2328 31.806 19.9439C32.2545 19.5097 32.8209 19.2172 33.4346 19.103C34.0482 18.9887 34.682 19.0578 35.2566 19.3015C35.8313 19.5453 36.3214 19.9529 36.6658 20.4735C37.0102 20.9942 37.1936 21.6047 37.193 22.2289C37.1923 22.8437 37.0141 23.4452 36.6799 23.9612C36.3457 24.4772 35.8697 24.8858 35.309 25.1379H35.311Z" fill="white"/>
<path d="M27.657 22.229C27.2075 22.229 26.768 22.3623 26.3942 22.6121C26.0204 22.8618 25.7291 23.2168 25.5571 23.6322C25.385 24.0475 25.34 24.5045 25.4277 24.9454C25.5154 25.3864 25.7319 25.7914 26.0498 26.1093C26.3677 26.4271 26.7727 26.6436 27.2136 26.7313C27.6545 26.819 28.1116 26.774 28.5269 26.602C28.9422 26.43 29.2972 26.1386 29.547 25.7648C29.7967 25.391 29.93 24.9516 29.93 24.502C29.929 23.8995 29.6892 23.3219 29.2631 22.8959C28.8371 22.4699 28.2596 22.2301 27.657 22.229V22.229Z" fill="white"/>
</svg>
