<svg width="29" height="42" viewBox="0 0 29 42" fill="none" xmlns="http://www.w3.org/2000/svg">
<path fill-rule="evenodd" clip-rule="evenodd" d="M22.3056 3.38914C22.281 3.34595 22.2432 3.35269 22.207 3.35916C22.1895 3.3623 22.1723 3.36537 22.1571 3.36266C22.0451 3.40014 21.9322 3.41587 21.8193 3.4316C21.7064 3.44733 21.5935 3.46306 21.4815 3.50054C20.9588 3.66525 20.4601 3.89821 19.9984 4.19339C19.5813 4.46068 19.2019 4.78261 18.8703 5.15062C18.5949 5.46359 18.3622 5.81172 18.1783 6.18591C17.9591 6.56897 17.778 6.97263 17.6377 7.39109C17.4882 7.83 17.3789 8.28155 17.3109 8.7402C17.2559 9.22237 17.2334 9.7077 17.2435 10.1929C17.2551 10.9259 17.3566 11.6546 17.5457 12.3629C17.5979 12.324 17.6472 12.2813 17.6931 12.2352C17.7624 12.1687 17.8321 12.1028 17.9018 12.037L17.9019 12.0369C18.1114 11.839 18.3208 11.6412 18.5175 11.4249C18.7938 11.1396 19.047 10.8329 19.2746 10.5075C19.6616 9.9411 19.9958 9.34042 20.2732 8.71301C20.4748 8.32199 20.6521 7.91892 20.8042 7.5061C20.8414 7.38255 20.8782 7.25845 20.915 7.1342L20.915 7.13417C21.0435 6.70106 21.1724 6.2662 21.3217 5.84651C21.6047 5.06396 21.9234 4.29746 22.2791 3.53756C22.2818 3.52241 22.2894 3.50817 22.2972 3.49362C22.3134 3.46361 22.3301 3.43232 22.3056 3.38914ZM22.0467 24.9694C21.9983 24.5468 21.916 24.1287 21.8006 23.7192C21.7427 23.5146 21.6608 23.3187 21.5788 23.1225L21.5788 23.1225C21.5194 22.9803 21.4599 22.8379 21.4094 22.692C21.4126 22.6742 21.4089 22.656 21.4051 22.6373C21.397 22.5977 21.3883 22.5553 21.4425 22.5066C21.7368 22.2066 21.9953 21.8735 22.213 21.5141C22.4605 21.1339 22.6647 20.7273 22.8217 20.3017C23.0154 19.7529 23.1182 19.1762 23.1262 18.5944C23.1393 18.1721 23.1089 17.7496 23.0353 17.3336C22.9381 16.8731 22.7936 16.4237 22.6043 15.9928C22.4696 15.6431 22.2865 15.314 22.0605 15.0151C21.6234 14.395 21.0661 13.869 20.4216 13.4686C20.0773 13.2459 19.708 13.0645 19.3214 12.9279C18.8787 12.7772 18.4156 12.6946 17.948 12.6829C17.3303 12.6979 16.7238 12.8514 16.1733 13.1321C15.8896 13.2949 15.6196 13.4806 15.3659 13.6871C15.3486 13.693 15.3314 13.7004 15.3143 13.7076C15.2406 13.739 15.1685 13.7697 15.0979 13.6872C14.9039 13.4945 14.6954 13.3172 14.4741 13.1566C14.1325 12.8732 13.7515 12.6408 13.3432 12.4667C12.8816 12.2358 12.3829 12.0885 11.87 12.0314C11.5531 11.9868 11.2318 11.9838 10.9142 12.0224C10.4667 12.0835 10.0296 12.2052 9.61483 12.3841C9.18604 12.5748 8.78684 12.826 8.42942 13.1301C7.97285 13.5166 7.57105 13.9635 7.23512 14.4585C6.99338 14.8248 6.78069 15.2095 6.599 15.609C6.43769 16.0444 6.31894 16.4945 6.24439 16.9529C6.15866 17.272 6.10052 17.598 6.07062 17.9271C6.04262 18.2988 6.06282 18.6725 6.1307 19.039C6.13521 19.0636 6.14699 19.0738 6.15476 19.0805C6.15853 19.0837 6.16136 19.0861 6.16194 19.089C6.16367 19.0976 6.14546 19.1103 6.07299 19.1604L6.07296 19.1605L6.02658 19.1926C5.91899 19.2675 5.79928 19.3096 5.67743 19.3524C5.564 19.3923 5.44871 19.4328 5.3396 19.501C4.63272 19.941 4.08383 20.594 3.7721 21.3661C3.51227 21.9454 3.36227 22.5679 3.32974 23.2019C3.29322 23.6181 3.28859 24.0365 3.31589 24.4534C3.323 24.5459 3.34112 24.6367 3.35936 24.7281C3.39287 24.8961 3.42678 25.0661 3.39355 25.2524C3.22135 25.8421 3.11316 26.4487 3.07085 27.0617C3.03223 27.5978 3.04843 28.1365 3.11921 28.6693C3.19421 29.2743 3.33179 29.8699 3.52975 30.4466C3.57227 30.567 3.61031 30.6793 3.64902 30.7937C3.7088 30.9702 3.77022 31.1516 3.85233 31.3753C3.98764 31.744 4.15715 32.0808 4.32698 32.4174C4.4968 32.7539 4.5731 32.8634 4.93946 32.5266C5.09056 32.3877 5.25308 32.2672 5.41469 32.1473C5.64494 31.9765 5.87335 31.807 6.06426 31.5879C6.16087 31.482 6.2712 31.3849 6.38231 31.2871C6.50397 31.1799 6.62657 31.072 6.73314 30.9509C7.19649 30.4214 7.6174 29.8562 7.99197 29.2606C8.40561 28.6199 8.70366 27.9116 8.87258 27.1679C8.88495 27.0737 8.94683 26.9934 9.03472 26.9575C9.23129 26.861 9.41196 26.735 9.57049 26.5839C9.89708 26.3147 10.1898 26.0068 10.4424 25.6671C10.8026 25.1846 11.1102 24.665 11.3602 24.1172C11.2061 24.6462 11.1002 25.1881 11.0438 25.7362C11.0162 26.1084 11.0135 26.4821 11.0357 26.8547C11.0703 27.3035 11.1724 27.7445 11.3385 28.1629C11.3919 28.2656 11.3695 28.3913 11.2839 28.4692C11.1515 28.6264 11.0626 28.8149 11.024 29.0163L11.0234 29.0162C10.9299 29.3171 10.8561 29.6237 10.8024 29.9342C10.7803 30.0582 10.7601 30.1656 10.7399 30.2726C10.6998 30.4857 10.66 30.6976 10.6055 31.0384C10.5613 31.3141 10.5313 31.6203 10.503 31.9081L10.503 31.9082C10.4788 32.1546 10.4559 32.3876 10.4266 32.5767C10.3645 32.9783 10.3334 33.5142 10.3105 33.91L10.3091 33.9343C10.2921 34.2274 10.3062 34.5207 10.3203 34.8166L10.3203 34.8168L10.3203 34.8169C10.3254 34.9227 10.3305 35.0289 10.3342 35.1354C10.3437 35.512 10.3725 35.8878 10.4205 36.2614C10.5035 36.8571 10.622 37.4474 10.7755 38.0289C10.8544 38.3682 10.968 38.6984 11.1138 39.0147C11.0848 39.0044 11.0712 39.003 11.0945 39.0911L11.1071 39.1392C11.1393 39.2627 11.1783 39.412 11.2157 39.4861C11.258 39.57 11.3393 39.6516 11.4043 39.6631C11.5243 39.6377 11.6408 39.5974 11.751 39.5433C12.2145 39.2793 12.6944 39.0451 13.1877 38.8422C13.4968 38.6916 13.8184 38.5647 14.1401 38.4379L14.1401 38.4379L14.1401 38.4379L14.1402 38.4379C14.4622 38.3109 14.7842 38.1839 15.0936 38.0331C15.3983 37.877 15.6866 37.708 15.9861 37.5318C16.4193 37.2757 16.8279 36.9799 17.2065 36.6484C17.4675 36.4739 17.7162 36.2815 17.9506 36.0727C18.4072 35.5712 18.8231 35.0342 19.1944 34.4667C19.4318 34.0894 19.6398 33.6944 19.8167 33.2852C20.0246 32.835 20.1708 32.3586 20.2512 31.8692C20.308 31.5134 20.337 31.1536 20.3378 30.7932C20.3372 30.7137 20.332 30.634 20.3267 30.5545L20.3267 30.5544L20.3267 30.5544L20.3267 30.5543C20.3049 30.2223 20.2834 29.8942 20.5994 29.5953C20.9487 29.2013 21.2321 28.7535 21.4388 28.2693C21.7004 27.7473 21.8838 27.1897 21.9832 26.6144C22.0888 26.0726 22.1103 25.5178 22.0467 24.9694ZM6.26319 28.5984C6.15182 29.0288 5.97526 29.4396 5.73963 29.8166C5.57295 30.0906 5.28984 30.273 4.97147 30.3115C4.76422 30.277 4.58986 30.1371 4.51116 29.9423C4.43801 29.6114 4.44339 29.2679 4.52688 28.9395C4.62914 28.461 4.84353 28.0135 5.15243 27.634L5.15395 27.6321C5.32658 27.4141 5.52452 27.1642 5.89291 27.2399C6.11079 27.2606 6.28419 27.4315 6.30817 27.649C6.36035 27.9651 6.34502 28.2887 6.26319 28.5984ZM9.27858 22.3202C9.03378 23.4308 8.44933 24.4376 7.60636 25.2009C7.35508 25.4408 7.01828 25.5702 6.67102 25.5603C6.32523 25.5011 6.04088 25.2548 5.9329 24.921C5.8819 24.4267 5.93198 23.9272 6.0801 23.4529C6.26477 22.9764 6.49081 22.517 6.75563 22.0799C6.97537 21.7495 7.23201 21.4452 7.52058 21.1728C7.79231 20.8951 8.16575 20.7406 8.55422 20.7451C8.79424 20.7479 9.01317 20.8828 9.12363 21.0959C9.33286 21.4682 9.38845 21.9075 9.27858 22.3202ZM12.4563 16.5867C12.3231 16.8593 12.1612 17.1165 11.9986 17.3749C11.9407 17.4668 11.8828 17.5588 11.826 17.6518C11.5562 18.0791 11.2171 18.4585 10.8227 18.7744C10.5244 18.9982 10.1069 19.0298 9.93441 18.8171C9.83156 18.661 9.77746 18.4778 9.77901 18.2909C9.79539 17.8591 9.89714 17.4349 10.0784 17.0426C10.2958 16.4935 10.5777 15.9722 10.9181 15.4895C11.2412 14.8973 11.734 14.4151 12.3332 14.1049C12.4444 14.0605 12.5668 14.0519 12.6832 14.0804C12.9153 14.1218 13.0598 14.4921 13.038 14.7754C12.9594 15.4103 12.7621 16.0247 12.4563 16.5867ZM11.8375 29.1438C11.8457 29.1506 11.8546 29.1565 11.8641 29.1611C11.8541 29.1676 11.8482 29.1616 11.8375 29.1438ZM11.1665 39.0277L11.1767 39.0216L11.1788 39.0316L11.1665 39.0277ZM14.3764 21.218C14.3289 21.2498 14.267 21.2439 14.2263 21.2069C14.2683 21.2316 14.3157 21.2409 14.3865 21.2122L14.3812 21.2154L14.3764 21.218ZM18.3612 16.2712C18.4426 15.9922 18.5425 15.719 18.6603 15.4533C18.7471 15.2335 18.9046 15.0489 19.108 14.9286C19.3502 14.7627 19.6806 14.8216 19.8504 15.061C19.9985 15.2312 20.1096 15.4301 20.1768 15.6454C20.3447 16.2134 20.4299 16.8026 20.4298 17.3948C20.433 18.267 20.3294 19.1364 20.1212 19.9834C20.0239 20.3523 19.8581 20.6995 19.6324 21.007C19.4448 21.301 19.0544 21.3873 18.7604 21.1997C18.6626 21.1373 18.5839 21.0492 18.5329 20.945C18.2627 20.4422 18.1101 19.8848 18.0865 19.3145C18.0453 18.7799 18.0514 18.2428 18.1047 17.7093C18.1148 17.2195 18.2014 16.7343 18.3612 16.2712ZM14.3604 37.6827C14.0006 37.6989 13.663 37.5086 13.4905 37.1925C13.305 36.8456 13.2031 36.4602 13.1927 36.0671C13.1756 35.5575 13.2437 35.0487 13.3942 34.5616C13.5684 33.8354 13.8633 33.1437 14.2668 32.5153C14.5223 32.1038 14.8792 31.7648 15.3034 31.5309C15.6854 31.329 16.1559 31.4129 16.4446 31.7345C16.7548 32.1 16.9141 32.57 16.8901 33.0488C16.8683 33.7373 16.7471 34.4191 16.5301 35.073C16.3491 35.7546 16.0301 36.3918 15.593 36.9452C15.3125 37.3623 14.8606 37.6327 14.3604 37.6827ZM16.4724 36.9586C16.0448 37.262 15.596 37.5341 15.1299 37.7735C15.237 37.7169 15.3434 37.6588 15.4488 37.5988C15.8511 37.3744 16.2382 37.1236 16.6074 36.8481C16.7376 36.752 16.8655 36.6527 16.9912 36.551C16.8218 36.6912 16.6491 36.8274 16.4724 36.9586ZM18.6336 28.6504C18.4751 28.9407 18.2633 29.1985 18.0092 29.4103C17.7401 29.6691 17.3436 29.7448 16.9981 29.6033C16.7078 29.487 16.4735 29.2634 16.3437 28.9789C16.1446 28.5546 16.0409 28.0918 16.0397 27.6231C16.0333 27.1584 16.0842 26.6947 16.1912 26.2425L16.3782 25.1941C16.4635 24.9207 16.5717 24.6549 16.7016 24.3996C16.9112 23.9549 17.2474 23.5819 17.6682 23.3275C18.0335 23.1747 18.4545 23.2497 18.7445 23.5194C19.149 23.9287 19.3741 24.4821 19.3699 25.0575C19.4118 25.5743 19.3866 26.0943 19.295 26.6047C19.1991 27.3208 18.9751 28.0137 18.6336 28.6504ZM26.8001 10.6632C26.8929 10.6798 26.9394 10.6881 26.9162 10.818C26.8239 11.4631 26.6565 12.0951 26.4174 12.7014C26.1996 13.2889 25.7718 13.775 25.2167 14.0657C24.8545 14.2336 24.4557 14.3074 24.0574 14.2805C23.7088 14.2589 23.3632 14.2037 23.0253 14.1155C22.0619 13.8239 21.138 13.4148 20.2746 12.8974C20.1484 12.8268 20.0182 12.7628 19.888 12.6988L19.888 12.6988L19.888 12.6988L19.8879 12.6988C19.7584 12.6351 19.6287 12.5713 19.5029 12.5011C19.41 12.4845 19.2895 12.463 19.2878 12.3096C19.2865 12.1974 19.3428 12.1671 19.4037 12.1343L19.4037 12.1343C19.4261 12.1222 19.4491 12.1098 19.4702 12.0929C19.9796 11.759 20.587 11.6075 21.1935 11.663C21.4597 11.6714 21.7352 11.7011 22.003 11.7299C22.1948 11.7505 22.3826 11.7707 22.5602 11.7824C23.1627 11.8636 23.7751 11.8332 24.3666 11.6928C24.6177 11.6116 24.8533 11.4885 25.0635 11.3289C25.4268 11.0724 25.8271 10.8729 26.2507 10.7375C26.4263 10.6733 26.6137 10.648 26.8001 10.6632ZM16.5994 11.7638C16.6083 11.2946 16.4927 10.8314 16.2645 10.4213C15.7858 9.67311 15.1567 9.03275 14.4171 8.54094C13.9512 8.19947 13.5305 7.87545 13.116 7.51436C12.6307 7.12033 12.251 6.61178 12.0111 6.03451C11.9058 6.30323 11.8547 6.59008 11.8605 6.87862C11.8172 7.46887 11.8942 8.06176 12.087 8.62134C12.2917 9.27849 12.6298 9.88635 13.0801 10.4069C13.2766 10.6594 13.5172 10.8743 13.7903 11.0409C14.2747 11.2356 14.7788 11.3769 15.2937 11.4622C15.7833 11.5432 16.232 11.785 16.5689 12.1494C16.6316 12.0512 16.6189 11.9609 16.6071 11.8781C16.6015 11.8383 16.5961 11.8002 16.5994 11.7638Z" fill="white"/>
</svg>
