<svg width="39" height="39" viewBox="0 0 39 39" fill="none" xmlns="http://www.w3.org/2000/svg">
<path d="M19.1397 37.9583C29.1183 37.9583 37.2075 29.869 37.2075 19.8904C37.2075 9.91178 29.1183 1.82251 19.1397 1.82251C9.16104 1.82251 1.07178 9.91178 1.07178 19.8904C1.07178 29.869 9.16104 37.9583 19.1397 37.9583Z" stroke="white" stroke-width="2" stroke-miterlimit="10"/>
<path fill-rule="evenodd" clip-rule="evenodd" d="M24.6147 8.78395C24.5993 8.75683 24.5756 8.76106 24.5528 8.76513C24.5418 8.76709 24.531 8.76902 24.5215 8.76733C24.4511 8.79086 24.3802 8.80074 24.3093 8.81062C24.2384 8.8205 24.1675 8.83038 24.0971 8.85392C23.7688 8.95737 23.4556 9.10369 23.1656 9.2891C22.9037 9.45698 22.6654 9.65918 22.4571 9.89032C22.2841 10.0869 22.1379 10.3055 22.0224 10.5406C21.8848 10.7812 21.771 11.0347 21.6829 11.2975C21.589 11.5732 21.5203 11.8568 21.4777 12.1449C21.4431 12.4477 21.429 12.7526 21.4353 13.0573C21.4426 13.5177 21.5064 13.9754 21.6251 14.4203C21.6579 14.3958 21.6889 14.369 21.7177 14.3401C21.7612 14.2983 21.805 14.2569 21.8488 14.2155C21.9804 14.0912 22.112 13.967 22.2355 13.8311C22.409 13.6519 22.568 13.4593 22.711 13.2549C22.9541 12.8992 23.164 12.5219 23.3382 12.1278C23.4648 11.8822 23.5762 11.6291 23.6717 11.3698C23.6951 11.2922 23.7182 11.2142 23.7413 11.1362C23.822 10.8642 23.903 10.591 23.9968 10.3274C24.1746 9.83589 24.3747 9.35446 24.5981 8.87718C24.5998 8.86766 24.6046 8.85872 24.6095 8.84959L24.6095 8.84958C24.6196 8.83073 24.6302 8.81108 24.6147 8.78395ZM24.4522 22.3383C24.4218 22.0728 24.3701 21.8103 24.2976 21.5531C24.2612 21.4246 24.2098 21.3015 24.1583 21.1783C24.121 21.089 24.0836 20.9995 24.0519 20.9079C24.0539 20.8967 24.0516 20.8853 24.0492 20.8735C24.0441 20.8487 24.0387 20.8221 24.0727 20.7914C24.2575 20.603 24.4199 20.3938 24.5566 20.1681C24.7121 19.9293 24.8403 19.6739 24.9389 19.4066C25.0606 19.0619 25.1252 18.6997 25.1302 18.3342C25.1384 18.069 25.1193 17.8037 25.0731 17.5424C25.012 17.2531 24.9213 16.9709 24.8024 16.7002C24.7178 16.4806 24.6028 16.2739 24.4609 16.0862C24.1863 15.6966 23.8363 15.3663 23.4315 15.1148C23.2152 14.9749 22.9833 14.861 22.7405 14.7752C22.4624 14.6805 22.1715 14.6286 21.8778 14.6213C21.4899 14.6307 21.1089 14.7271 20.7632 14.9034C20.585 15.0057 20.4154 15.1223 20.2561 15.252C20.2452 15.2558 20.2344 15.2604 20.2236 15.2649C20.1774 15.2846 20.1321 15.3039 20.0877 15.2521C19.9659 15.1311 19.8349 15.0197 19.6959 14.9189C19.4813 14.7408 19.2421 14.5949 18.9856 14.4855C18.6957 14.3405 18.3824 14.2479 18.0603 14.2121C17.8613 14.1841 17.6595 14.1822 17.46 14.2065C17.1789 14.2448 16.9043 14.3213 16.6439 14.4336C16.3745 14.5534 16.1238 14.7112 15.8993 14.9022C15.6126 15.1449 15.3602 15.4256 15.1492 15.7365C14.9974 15.9666 14.8638 16.2082 14.7497 16.4591C14.6483 16.7327 14.5738 17.0153 14.5269 17.3032C14.4731 17.5037 14.4366 17.7084 14.4178 17.9152C14.4002 18.1486 14.4129 18.3833 14.4555 18.6135C14.4584 18.629 14.4658 18.6353 14.4706 18.6395C14.473 18.6416 14.4748 18.6431 14.4752 18.6449C14.4762 18.6503 14.4648 18.6583 14.4193 18.6898L14.3901 18.71C14.3226 18.757 14.2474 18.7835 14.1708 18.8103C14.0996 18.8354 14.0272 18.8608 13.9586 18.9037C13.5147 19.18 13.1699 19.5902 12.9741 20.0751C12.8109 20.4389 12.7167 20.8299 12.6963 21.2282C12.6733 21.4896 12.6704 21.7524 12.6876 22.0142C12.692 22.0723 12.7034 22.1294 12.7149 22.1868C12.7359 22.2923 12.7572 22.399 12.7364 22.516C12.6282 22.8865 12.5602 23.2675 12.5337 23.6524C12.5094 23.9892 12.5196 24.3275 12.564 24.6622C12.6112 25.0422 12.6976 25.4163 12.8219 25.7784C12.8486 25.8541 12.8725 25.9247 12.8968 25.9965C12.9344 26.1074 12.9729 26.2213 13.0245 26.3618C13.1095 26.5933 13.216 26.8049 13.3226 27.0163C13.4293 27.2277 13.4772 27.2964 13.7073 27.0849C13.8022 26.9977 13.9043 26.9219 14.0058 26.8466C14.1504 26.7394 14.2939 26.6329 14.4138 26.4953C14.4745 26.4288 14.5438 26.3678 14.6135 26.3064L14.6136 26.3064C14.69 26.2391 14.767 26.1713 14.8339 26.0952C15.1249 25.7626 15.3893 25.4077 15.6246 25.0336C15.8844 24.6311 16.0716 24.1863 16.1777 23.7191C16.1854 23.66 16.2243 23.6096 16.2795 23.587C16.403 23.5264 16.5164 23.4473 16.616 23.3524C16.8211 23.1833 17.005 22.9899 17.1637 22.7766C17.3899 22.4735 17.5831 22.1471 17.7401 21.803C17.6433 22.1353 17.5768 22.4757 17.5414 22.8199C17.524 23.0537 17.5223 23.2884 17.5363 23.5224C17.558 23.8043 17.6221 24.0813 17.7265 24.3441C17.76 24.4086 17.7459 24.4876 17.6922 24.5365C17.609 24.6352 17.5532 24.7536 17.529 24.8801L17.5286 24.8801C17.4699 25.069 17.4235 25.2616 17.3898 25.4566C17.3759 25.5345 17.3632 25.6019 17.3505 25.6691L17.3505 25.6691L17.3505 25.6692C17.3253 25.803 17.3003 25.9361 17.2661 26.1501C17.2384 26.3233 17.2195 26.5156 17.2017 26.6964L17.2017 26.6964L17.2017 26.6965C17.1865 26.8512 17.1721 26.9976 17.1537 27.1164C17.1147 27.3686 17.0952 27.7052 17.0808 27.9538L17.0799 27.9691C17.0693 28.1531 17.0781 28.3374 17.087 28.5232L17.087 28.5233C17.0902 28.5898 17.0934 28.6565 17.0957 28.7235C17.1016 28.96 17.1198 29.196 17.1499 29.4307C17.202 29.8048 17.2765 30.1756 17.3728 30.5408C17.4224 30.754 17.4938 30.9613 17.5854 31.16C17.5671 31.1536 17.5586 31.1526 17.5732 31.208L17.5811 31.2382C17.6014 31.3158 17.6259 31.4095 17.6493 31.456C17.6759 31.5088 17.727 31.56 17.7678 31.5673C17.8432 31.5513 17.9164 31.526 17.9856 31.492C18.2767 31.3262 18.5781 31.1791 18.8879 31.0516C19.0821 30.957 19.2841 30.8774 19.4861 30.7977C19.6884 30.718 19.8906 30.6382 20.085 30.5435C20.2764 30.4454 20.4575 30.3392 20.6456 30.2286C20.9177 30.0677 21.1743 29.882 21.4121 29.6737C21.5761 29.5641 21.7322 29.4433 21.8795 29.3121C22.1662 28.9972 22.4275 28.6599 22.6607 28.3035C22.8098 28.0665 22.9404 27.8184 23.0515 27.5614C23.1821 27.2786 23.2739 26.9794 23.3244 26.672C23.3601 26.4485 23.3783 26.2225 23.3789 25.9962C23.3785 25.9462 23.3752 25.8961 23.3719 25.8461C23.3582 25.6376 23.3446 25.4315 23.5431 25.2438C23.7625 24.9963 23.9405 24.7151 24.0704 24.4109C24.2347 24.0831 24.3499 23.7329 24.4123 23.3715C24.4786 23.0312 24.4921 22.6827 24.4522 22.3383ZM14.5387 24.6176C14.4688 24.8879 14.3579 25.146 14.2099 25.3828C14.1052 25.5548 13.9274 25.6694 13.7274 25.6936C13.5973 25.6719 13.4877 25.5841 13.4383 25.4617C13.3924 25.2539 13.3957 25.0382 13.4482 24.8319C13.5124 24.5313 13.6471 24.2503 13.8411 24.0119L13.842 24.0107C13.9505 23.8738 14.0748 23.7169 14.3062 23.7644C14.443 23.7774 14.5519 23.8847 14.567 24.0214C14.5998 24.2199 14.5901 24.4231 14.5387 24.6176ZM16.4327 20.6744C16.2789 21.3719 15.9118 22.0043 15.3824 22.4837C15.2245 22.6344 15.013 22.7157 14.7949 22.7094C14.5777 22.6722 14.3991 22.5176 14.3313 22.3079C14.2993 21.9975 14.3307 21.6837 14.4237 21.3858C14.5397 21.0865 14.6817 20.798 14.848 20.5234C14.9861 20.3159 15.1472 20.1248 15.3285 19.9537C15.4992 19.7793 15.7337 19.6823 15.9777 19.6851C16.1285 19.6869 16.266 19.7716 16.3353 19.9054C16.4668 20.1393 16.5017 20.4152 16.4327 20.6744ZM18.4286 17.0732C18.3449 17.2444 18.2432 17.406 18.1411 17.5683C18.1047 17.626 18.0683 17.6838 18.0327 17.7422C17.8632 18.0106 17.6502 18.2489 17.4025 18.4473C17.2151 18.5878 16.953 18.6077 16.8446 18.4741C16.78 18.376 16.746 18.261 16.747 18.1436C16.7573 17.8724 16.8212 17.606 16.935 17.3596C17.0716 17.0147 17.2486 16.6872 17.4624 16.3841C17.6654 16.0121 17.9749 15.7093 18.3512 15.5145C18.4211 15.4866 18.498 15.4812 18.5711 15.4991C18.7169 15.5251 18.8076 15.7576 18.7939 15.9356C18.7445 16.3343 18.6206 16.7203 18.4286 17.0732ZM18.0399 24.9602C18.0451 24.9645 18.0506 24.9682 18.0566 24.9711C18.0503 24.9752 18.0466 24.9714 18.0399 24.9602ZM17.6185 31.1681L17.6249 31.1643L17.6262 31.1706L17.6185 31.1681ZM19.6345 19.9821C19.6047 20.002 19.5658 19.9984 19.5402 19.9751C19.5666 19.9906 19.5965 19.9965 19.6409 19.9784L19.6376 19.9804L19.6345 19.9821ZM22.1374 16.8751C22.1885 16.6998 22.2512 16.5282 22.3252 16.3614C22.3797 16.2233 22.4787 16.1073 22.6064 16.0318C22.7585 15.9276 22.9661 15.9646 23.0727 16.115C23.1657 16.2218 23.2355 16.3468 23.2777 16.482C23.3832 16.8388 23.4367 17.2088 23.4366 17.5808C23.4387 18.1286 23.3736 18.6747 23.2428 19.2067C23.1817 19.4383 23.0775 19.6564 22.9358 19.8496C22.8179 20.0342 22.5728 20.0884 22.3881 19.9706C22.3267 19.9314 22.2772 19.8761 22.2452 19.8106C22.0755 19.4949 21.9796 19.1447 21.9648 18.7865C21.9389 18.4508 21.9428 18.1134 21.9763 17.7783C21.9826 17.4707 22.037 17.1659 22.1374 16.8751ZM19.6245 30.3234C19.3985 30.3336 19.1865 30.2141 19.0781 30.0155C18.9616 29.7976 18.8976 29.5556 18.8911 29.3086C18.8803 28.9886 18.9231 28.669 19.0176 28.363C19.127 27.9069 19.3123 27.4725 19.5657 27.0778C19.7262 26.8193 19.9504 26.6064 20.2168 26.4595C20.4567 26.3327 20.7522 26.3854 20.9336 26.5874C21.1284 26.8169 21.2284 27.1121 21.2134 27.4129C21.1997 27.8453 21.1235 28.2736 20.9873 28.6842C20.8736 29.1123 20.6732 29.5126 20.3987 29.8602C20.2225 30.1222 19.9387 30.292 19.6245 30.3234ZM20.951 29.8686C20.6824 30.0592 20.4006 30.2301 20.1078 30.3804C20.1751 30.3449 20.2419 30.3084 20.3081 30.2707C20.5608 30.1297 20.8039 29.9722 21.0358 29.7992C21.1176 29.7388 21.1979 29.6765 21.2769 29.6126C21.1705 29.7006 21.062 29.7862 20.951 29.8686ZM22.3084 24.6503C22.2089 24.8326 22.0759 24.9946 21.9163 25.1276C21.7473 25.2902 21.4982 25.3377 21.2812 25.2488C21.0989 25.1758 20.9517 25.0353 20.8702 24.8566C20.7452 24.5901 20.68 24.2995 20.6792 24.0051C20.6752 23.7132 20.7072 23.422 20.7744 23.1379L20.8918 22.4794C20.9455 22.3077 21.0134 22.1408 21.095 21.9804C21.2266 21.7011 21.4378 21.4668 21.7021 21.307C21.9316 21.211 22.196 21.2582 22.3781 21.4276C22.6322 21.6846 22.7735 22.0322 22.7709 22.3936C22.7972 22.7182 22.7814 23.0449 22.7239 23.3654C22.6637 23.8152 22.5229 24.2504 22.3084 24.6503ZM27.4377 13.3528C27.496 13.3632 27.5252 13.3684 27.5107 13.4499C27.4527 13.8551 27.3475 14.2521 27.1974 14.6329C27.0605 15.0019 26.7919 15.3072 26.4432 15.4898C26.2157 15.5953 25.9653 15.6416 25.7151 15.6247C25.4962 15.6112 25.2791 15.5765 25.0668 15.5211C24.4617 15.338 23.8815 15.081 23.3392 14.756C23.2599 14.7117 23.1781 14.6715 23.0963 14.6313L23.0963 14.6313C23.0149 14.5912 22.9335 14.5512 22.8544 14.5071C22.7961 14.4967 22.7204 14.4832 22.7193 14.3868C22.7186 14.3163 22.7539 14.2973 22.7921 14.2767C22.8062 14.2691 22.8207 14.2613 22.8339 14.2507C23.1538 14.041 23.5354 13.9459 23.9163 13.9807C24.0835 13.986 24.2565 14.0046 24.4247 14.0227L24.4247 14.0227C24.5452 14.0357 24.6632 14.0484 24.7747 14.0557C25.1532 14.1067 25.5377 14.0876 25.9093 13.9994C26.067 13.9484 26.215 13.8711 26.347 13.7708C26.5752 13.6097 26.8266 13.4845 27.0926 13.3994C27.2029 13.3591 27.3207 13.3432 27.4377 13.3528ZM21.0308 14.0439C21.0363 13.7492 20.9637 13.4582 20.8204 13.2007C20.5198 12.7308 20.1246 12.3285 19.6601 12.0196C19.3675 11.8052 19.1032 11.6017 18.8429 11.3749C18.5381 11.1274 18.2996 10.808 18.1489 10.4454C18.0828 10.6142 18.0506 10.7943 18.0543 10.9756C18.0271 11.3463 18.0755 11.7187 18.1966 12.0701C18.3251 12.4829 18.5375 12.8647 18.8203 13.1916C18.9437 13.3503 19.0949 13.4852 19.2664 13.5899C19.5706 13.7121 19.8872 13.8009 20.2107 13.8545C20.5182 13.9053 20.8 14.0572 21.0116 14.2861C21.051 14.2244 21.043 14.1677 21.0356 14.1157C21.0321 14.0907 21.0287 14.0668 21.0308 14.0439Z" fill="white"/>
</svg>
