<svg width="46" height="45" viewBox="0 0 46 45" fill="none" xmlns="http://www.w3.org/2000/svg">
<path d="M23.1314 44.8248C27.5219 44.8248 31.8139 43.5229 35.4645 41.0838C39.1152 38.6446 41.9606 35.1778 43.641 31.1215C45.3215 27.0653 45.7614 22.6019 44.9052 18.2956C44.049 13.9894 41.9352 10.0337 38.8309 6.92881C35.7267 3.82389 31.7715 1.70915 27.4655 0.851991C23.1594 -0.00516519 18.6959 0.433756 14.6393 2.11325C10.5827 3.79275 7.11517 6.63741 4.6752 10.2875C2.23523 13.9376 0.932386 18.2293 0.931397 22.6198C0.93074 25.5356 1.50448 28.4229 2.61984 31.1169C3.7352 33.8109 5.37033 36.2588 7.43186 38.3208C9.49338 40.3828 11.9409 42.0185 14.6347 43.1345C17.3284 44.2504 20.2156 44.8248 23.1314 44.8248V44.8248ZM11.0914 22.1418L32.4984 13.8878C33.4924 13.5288 34.3594 14.1298 34.0374 15.6328L30.3944 32.8028C30.1244 34.0198 29.4004 34.3158 28.3884 33.7428L22.8374 29.6518L20.1604 32.2308C20.0286 32.402 19.8591 32.5403 19.6649 32.6351C19.4708 32.7298 19.2574 32.7783 19.0414 32.7768L19.4354 27.1278L29.7224 17.8338C30.1704 17.4398 29.6224 17.2178 29.0324 17.6098L16.3194 25.6098L10.8394 23.8998C9.6494 23.5228 9.6234 22.7098 11.0914 22.1368V22.1418Z" fill="white"/>
</svg>
