<svg width="36" height="36" viewBox="0 0 36 36" fill="none" xmlns="http://www.w3.org/2000/svg">
<path fill-rule="evenodd" clip-rule="evenodd" d="M8.98547 16.467C8.98509 16.8511 8.98471 17.2352 8.98476 17.6193C8.98481 17.9855 8.98524 18.3518 8.98566 18.718C8.98686 19.7424 8.98805 20.7668 8.98097 21.7911C8.97858 22.1366 9.1039 22.3689 9.40118 22.5509C12.0137 24.1504 14.6218 25.7572 17.2284 27.3664C17.5087 27.5395 17.7673 27.5433 18.0464 27.3712C20.6611 25.7589 23.2767 24.148 25.8953 22.5419C26.172 22.3721 26.3002 22.1513 26.2996 21.8247C26.2944 19.0091 26.2953 16.1936 26.2985 13.378C26.2988 13.0835 26.1852 12.8717 25.9342 12.7175C23.3023 11.1004 20.6717 9.48138 18.0423 7.86018C17.7726 7.69386 17.5185 7.68949 17.2469 7.85701C14.6322 9.4694 12.017 11.081 9.39729 12.6852C9.09926 12.8677 8.97841 13.1034 8.98072 13.4475C8.98746 14.454 8.98647 15.4605 8.98547 16.467ZM15.7802 17.1608L15.7806 17.6057C15.7806 17.7969 15.7804 17.9882 15.7802 18.1794C15.7797 18.5883 15.7792 18.9971 15.7818 19.406C15.7846 19.8486 16.0263 20.091 16.4675 20.0929C17.2476 20.0962 18.0278 20.0964 18.8079 20.0928C19.2642 20.0907 19.4993 19.8506 19.5002 19.3864C19.5027 18.2034 19.5031 17.0203 19.5003 15.8373C19.4992 15.3774 19.2589 15.1391 18.801 15.1376C18.038 15.1351 17.2751 15.1353 16.5121 15.1373C16.0057 15.1387 15.7822 15.3673 15.7807 15.8826C15.7794 16.3084 15.7798 16.7342 15.7802 17.16V17.1608ZM18.2378 16.4009V18.8309H17.0437V16.4009H18.2378ZM13.9234 20.0768V15.1589H12.7131V20.0768H13.9234ZM22.5709 20.0792H21.3612V15.1614H22.5709V20.0792Z" fill="white"/>
<path d="M17.6402 34.0545C26.7191 34.0545 34.079 26.6947 34.079 17.6158C34.079 8.53689 26.7191 1.177 17.6402 1.177C8.5613 1.177 1.20142 8.53689 1.20142 17.6158C1.20142 26.6947 8.5613 34.0545 17.6402 34.0545Z" stroke="white" stroke-width="2" stroke-miterlimit="10"/>
</svg>
