<svg width="36" height="36" viewBox="0 0 36 36" fill="none" xmlns="http://www.w3.org/2000/svg">
<path d="M17.6402 34.2682C26.7191 34.2682 34.079 26.9083 34.079 17.8294C34.079 8.75051 26.7191 1.39062 17.6402 1.39062C8.5613 1.39062 1.20142 8.75051 1.20142 17.8294C1.20142 26.9083 8.5613 34.2682 17.6402 34.2682Z" stroke="white" stroke-width="2" stroke-miterlimit="10"/>
<path fill-rule="evenodd" clip-rule="evenodd" d="M17.6404 34.5721C8.39372 34.5721 0.897827 27.0762 0.897827 17.8295C0.897827 8.5828 8.39372 1.08691 17.6404 1.08691C26.8871 1.08691 34.383 8.5828 34.383 17.8295C34.383 27.0762 26.8871 34.5721 17.6404 34.5721ZM17.6404 2.68145C9.2747 2.68145 2.49236 9.46378 2.49236 17.8295C2.49236 26.1952 9.2747 32.9775 17.6404 32.9775C26.0061 32.9775 32.7884 26.1952 32.7884 17.8295C32.7884 9.46378 26.0061 2.68145 17.6404 2.68145ZM30.3967 18.6268H29.5994C29.1585 18.6268 28.8021 18.2704 28.8021 17.8295C28.8021 17.3886 29.1585 17.0322 29.5994 17.0322H30.3967C30.8375 17.0322 31.1939 17.3886 31.1939 17.8295C31.1939 18.2704 30.8375 18.6268 30.3967 18.6268ZM25.5963 25.1675C25.5708 25.3174 25.5046 25.4601 25.3882 25.5773C25.1427 25.8221 24.7807 25.8603 24.4881 25.7144L24.5344 25.7615L24.5407 25.7679C24.4116 25.7144 24.2968 25.6642 24.1708 25.6124C20.0338 23.8887 17.6229 22.5381 16.3042 21.6755C15.2574 20.9914 14.889 20.6127 14.8739 20.5968C14.838 20.5625 12.8903 18.6738 9.70362 10.93L9.75704 10.9834C9.74907 10.9674 9.74747 10.9499 9.7411 10.9339C9.66775 10.7649 9.65977 10.5808 9.7108 10.4069C9.74588 10.2897 9.7993 10.1757 9.89337 10.0825C10.1318 9.84408 10.4818 9.80342 10.7712 9.93816C10.7783 9.94134 10.7871 9.94214 10.7935 9.94613L10.7751 9.9262L10.7409 9.89271C18.4847 13.0794 20.3734 15.0271 20.4077 15.063C20.4436 15.0973 22.3913 16.9868 25.578 24.7298L25.5429 24.6947L25.5246 24.6772C25.5429 24.7147 25.5501 24.7545 25.5628 24.7936C25.6019 24.9156 25.6178 25.0423 25.5963 25.1675ZM17.6404 17.0322C18.0813 17.0322 18.4377 17.3886 18.4377 17.8295C18.4377 18.2704 18.0813 18.6268 17.6404 18.6268C17.1995 18.6268 16.8431 18.2704 16.8431 17.8295C16.8431 17.3886 17.1995 17.0322 17.6404 17.0322ZM17.6404 6.66777C17.1995 6.66777 16.8431 6.3106 16.8431 5.87051V5.07324C16.8431 4.63315 17.1995 4.27598 17.6404 4.27598C18.0813 4.27598 18.4377 4.63315 18.4377 5.07324V5.87051C18.4377 6.3106 18.0813 6.66777 17.6404 6.66777ZM17.6404 28.9912C18.0813 28.9912 18.4377 29.3476 18.4377 29.7885V30.5857C18.4377 31.0266 18.0813 31.383 17.6404 31.383C17.1995 31.383 16.8431 31.0266 16.8431 30.5857V29.7885C16.8431 29.3476 17.1995 28.9912 17.6404 28.9912ZM5.68142 18.6268H4.88415C4.44327 18.6268 4.08689 18.2704 4.08689 17.8295C4.08689 17.3886 4.44327 17.0322 4.88415 17.0322H5.68142C6.12231 17.0322 6.47869 17.3886 6.47869 17.8295C6.47869 18.2704 6.12231 18.6268 5.68142 18.6268Z" fill="white"/>
</svg>
