<svg width="44" height="45" viewBox="0 0 44 45" fill="none" xmlns="http://www.w3.org/2000/svg">
<path d="M21.8729 0.419922C17.5594 0.419724 13.3428 1.69863 9.75617 4.09491C6.16957 6.4912 3.3741 9.89723 1.72327 13.8823C0.0724494 17.8673 -0.359584 22.2524 0.481808 26.483C1.3232 30.7136 3.40023 34.5997 6.45023 37.6499C9.50023 40.7 13.3862 42.7772 17.6168 43.6188C21.8473 44.4604 26.2325 44.0285 30.2176 42.3779C34.2027 40.7273 37.6089 37.9319 40.0053 34.3455C42.4018 30.759 43.6809 26.5424 43.6809 22.2289C43.6803 16.4452 41.3826 10.8984 37.2929 6.80857C33.2033 2.71873 27.6566 0.420717 21.8729 0.419922V0.419922ZM31.8309 17.4199C31.8402 17.6346 31.8449 17.8503 31.8449 18.0669C31.8582 19.9412 31.4989 21.7994 30.7878 23.5336C30.0768 25.2678 29.0282 26.8435 27.703 28.1689C26.3778 29.4944 24.8024 30.5433 23.0684 31.2547C21.3343 31.9661 19.4761 32.3258 17.6019 32.3129V32.3129C14.8813 32.3154 12.2176 31.5347 9.92888 30.0639C10.3252 30.1103 10.7239 30.1333 11.1229 30.1329C13.377 30.1364 15.5667 29.3816 17.3399 27.9899C16.2954 27.9702 15.2832 27.6246 14.4448 27.0014C13.6064 26.3781 12.9837 25.5084 12.6639 24.5139C13.4142 24.6588 14.1877 24.6294 14.9249 24.4279C13.7918 24.1991 12.7728 23.5854 12.0408 22.6908C11.3088 21.7962 10.9089 20.6758 10.9089 19.5199C10.9089 19.4969 10.9089 19.4769 10.9089 19.4559C11.6036 19.8429 12.381 20.0576 13.1759 20.0819C12.1159 19.3741 11.3655 18.289 11.0776 17.0473C10.7896 15.8057 10.9857 14.501 11.6259 13.3989C12.8829 14.9454 14.4511 16.2102 16.2287 17.1112C18.0063 18.0122 19.9535 18.5293 21.9439 18.6289C21.693 17.5554 21.8033 16.4291 22.2578 15.4247C22.7123 14.4203 23.4855 13.5939 24.4574 13.0738C25.4294 12.5536 26.5459 12.3687 27.6337 12.5477C28.7215 12.7267 29.7198 13.2597 30.4739 14.0639C31.595 13.8428 32.6701 13.4319 33.6529 12.8489C33.2793 14.008 32.4975 14.992 31.4529 15.6179C32.4452 15.5006 33.4144 15.235 34.3279 14.8299C33.6557 15.8348 32.8098 16.7119 31.8299 17.4199H31.8309Z" fill="white"/>
</svg>
