<svg width="19" height="38" viewBox="0 0 19 38" fill="none" xmlns="http://www.w3.org/2000/svg">
<path d="M7.31301 37.3445V32.7254H0.372654V28.0804H14.27V21.114H13.9924C11.0188 21.114 8.0452 21.1237 5.0717 21.1104C3.2543 21.1023 1.87458 20.295 0.9483 18.7318C0.563259 18.082 0.364867 17.3661 0.361499 16.6129C0.350688 14.1954 0.337204 11.7776 0.363489 9.36038C0.388068 7.09998 2.1743 5.14557 4.42884 4.91982C5.27515 4.83508 6.13445 4.87992 6.98783 4.86618C7.09035 4.86452 7.19291 4.86595 7.313 4.86595V0.241211H11.9584V4.86048H18.9072V9.50535H5.00962V16.4715C5.10161 16.4715 5.19448 16.4715 5.28735 16.4715C8.27704 16.4716 11.2668 16.4607 14.2564 16.4759C15.9443 16.4846 17.2618 17.2205 18.195 18.6253C18.665 19.3328 18.9128 20.125 18.9175 20.9721C18.9308 23.3815 18.9436 25.7913 18.9166 28.2004C18.8891 30.6532 16.8483 32.6719 14.3953 32.7163C13.6703 32.7294 12.9448 32.7193 12.2196 32.7199C12.1412 32.7199 12.0628 32.7199 11.9612 32.7199V37.3445H7.31301H7.31301Z" fill="white"/>
</svg>
