<svg width="39" height="39" viewBox="0 0 39 39" fill="none" xmlns="http://www.w3.org/2000/svg">
<path d="M17.8253 30.2026V27.5458H13.8334V24.8741H21.8268V20.8671H21.6671C19.9568 20.8672 18.2465 20.8727 16.5362 20.8651C15.4908 20.8605 14.6972 20.3961 14.1645 19.497C13.943 19.1232 13.8289 18.7114 13.8269 18.2782C13.8207 16.8877 13.813 15.4971 13.8281 14.1067C13.8422 12.8066 14.8696 11.6825 16.1664 11.5526C16.6532 11.5039 17.1474 11.5297 17.6383 11.5218C17.6972 11.5208 17.7562 11.5216 17.8253 11.5216V8.86157H20.4972V11.5185H24.494V14.1901H16.5004V18.1969C16.5534 18.1969 16.6068 18.1969 16.6602 18.1969C18.3798 18.1969 20.0994 18.1907 21.819 18.1995C22.7898 18.2044 23.5477 18.6277 24.0844 19.4357C24.3547 19.8427 24.4973 20.2983 24.5 20.7856C24.5076 22.1714 24.515 23.5574 24.4995 24.9431C24.4836 26.3539 23.3098 27.515 21.8989 27.5406C21.4819 27.5481 21.0646 27.5423 20.6475 27.5426C20.6024 27.5427 20.5573 27.5426 20.4988 27.5426V30.2026H17.8253H17.8253Z" fill="white"/>
<path d="M19.1638 37.6001C29.1424 37.6001 37.2317 29.5108 37.2317 19.5322C37.2317 9.55362 29.1424 1.46436 19.1638 1.46436C9.18521 1.46436 1.09595 9.55362 1.09595 19.5322C1.09595 29.5108 9.18521 37.6001 19.1638 37.6001Z" stroke="white" stroke-width="2" stroke-miterlimit="10"/>
</svg>
