<svg width="44" height="45" viewBox="0 0 44 45" fill="none" xmlns="http://www.w3.org/2000/svg">
<path d="M19.2369 26.3148L26.3309 22.2288L19.2369 18.1428V26.3148Z" fill="white"/>
<path d="M21.9539 0.419922C17.6405 0.419724 13.4238 1.69863 9.83723 4.09491C6.25062 6.4912 3.45515 9.89723 1.80433 13.8823C0.153504 17.8673 -0.27853 22.2524 0.562863 26.483C1.40425 30.7136 3.48128 34.5997 6.53129 37.6499C9.58129 40.7 13.4673 42.7772 17.6978 43.6188C21.9284 44.4604 26.3135 44.0285 30.2986 42.3779C34.2838 40.7273 37.6899 37.9319 40.0864 34.3455C42.4828 30.759 43.7619 26.5424 43.7619 22.2289C43.7614 16.4452 41.4636 10.8984 37.374 6.80857C33.2843 2.71873 27.7377 0.420717 21.9539 0.419922V0.419922ZM35.5809 22.2509C35.5945 24.4488 35.4067 26.6433 35.0199 28.8069C34.8638 29.3815 34.5602 29.9052 34.1392 30.3262C33.7182 30.7472 33.1945 31.0508 32.6199 31.2069C30.4869 31.7679 21.9559 31.7679 21.9559 31.7679C21.9559 31.7679 13.4469 31.7679 11.2919 31.1839C10.7174 31.0278 10.1937 30.7242 9.77266 30.3032C9.35167 29.8822 9.04805 29.3585 8.89193 28.7839C8.50433 26.6207 8.31654 24.4265 8.33093 22.2289C8.3173 20.0314 8.50509 17.8372 8.89193 15.6739C9.05046 15.0978 9.35448 14.5722 9.77477 14.1475C10.1951 13.7229 10.7175 13.4134 11.2919 13.2489C13.4249 12.6879 21.9559 12.6879 21.9559 12.6879C21.9559 12.6879 30.4869 12.6879 32.6199 13.2719C33.1945 13.428 33.7182 13.7317 34.1392 14.1527C34.5602 14.5736 34.8638 15.0974 35.0199 15.6719C35.4189 17.8413 35.6068 20.0443 35.5809 22.2499V22.2509Z" fill="white"/>
</svg>
